G04*
G04 #@! TF.GenerationSoftware,Altium Limited,Altium Designer,19.1.6 (110)*
G04*
G04 Layer_Color=16711935*
%FSLAX25Y25*%
%MOIN*%
G70*
G01*
G75*
%ADD19R,0.03950X0.03950*%
G04:AMPARAMS|DCode=28|XSize=86.74mil|YSize=82.8mil|CornerRadius=22.7mil|HoleSize=0mil|Usage=FLASHONLY|Rotation=270.000|XOffset=0mil|YOffset=0mil|HoleType=Round|Shape=RoundedRectangle|*
%AMROUNDEDRECTD28*
21,1,0.08674,0.03740,0,0,270.0*
21,1,0.04134,0.08280,0,0,270.0*
1,1,0.04540,-0.01870,-0.02067*
1,1,0.04540,-0.01870,0.02067*
1,1,0.04540,0.01870,0.02067*
1,1,0.04540,0.01870,-0.02067*
%
%ADD28ROUNDEDRECTD28*%
%ADD29C,0.06509*%
%ADD30C,0.08674*%
%ADD31C,0.14580*%
%ADD32C,0.04737*%
%ADD33C,0.03162*%
D19*
X25197Y77953D02*
D03*
Y83858D02*
D03*
X128150Y104331D02*
D03*
Y98425D02*
D03*
X71260Y111024D02*
D03*
Y105118D02*
D03*
D28*
X7874Y62667D02*
D03*
Y90226D02*
D03*
D29*
X18504Y66604D02*
D03*
Y86289D02*
D03*
D30*
X147638Y122835D02*
D03*
Y112835D02*
D03*
Y102835D02*
D03*
Y92835D02*
D03*
Y82835D02*
D03*
Y72835D02*
D03*
Y62835D02*
D03*
Y52835D02*
D03*
Y42835D02*
D03*
Y32835D02*
D03*
X32461Y148031D02*
D03*
X42461D02*
D03*
X52461D02*
D03*
X62461D02*
D03*
X72461D02*
D03*
X82461D02*
D03*
X92461D02*
D03*
X102461D02*
D03*
X112461D02*
D03*
X122461D02*
D03*
X75394Y132480D02*
D03*
Y82087D02*
D03*
X125591D02*
D03*
X125787Y132480D02*
D03*
X122461Y9449D02*
D03*
X112461D02*
D03*
X102461D02*
D03*
X92461D02*
D03*
X82461D02*
D03*
X72461D02*
D03*
X62461D02*
D03*
X52461D02*
D03*
X42461D02*
D03*
X32461D02*
D03*
D31*
X9843Y9843D02*
D03*
X147638D02*
D03*
Y147638D02*
D03*
X9843D02*
D03*
D32*
X11417Y23858D02*
D03*
X6417D02*
D03*
X11417Y28858D02*
D03*
X6417D02*
D03*
X11417Y33858D02*
D03*
X6417D02*
D03*
X11417Y38858D02*
D03*
X6417D02*
D03*
Y43858D02*
D03*
X11417D02*
D03*
D33*
X93898Y100787D02*
D03*
Y105118D02*
D03*
Y109449D02*
D03*
Y113779D02*
D03*
X98228Y100787D02*
D03*
Y105118D02*
D03*
Y109449D02*
D03*
Y113779D02*
D03*
X102559Y100787D02*
D03*
Y105118D02*
D03*
Y109449D02*
D03*
Y113779D02*
D03*
X106890Y100787D02*
D03*
Y105118D02*
D03*
Y109449D02*
D03*
Y113779D02*
D03*
X66535Y56367D02*
D03*
Y52037D02*
D03*
X62205Y56367D02*
D03*
Y52037D02*
D03*
M02*
