G04*
G04 #@! TF.GenerationSoftware,Altium Limited,Altium Designer,19.1.6 (110)*
G04*
G04 Layer_Color=8388736*
%FSLAX25Y25*%
%MOIN*%
G70*
G01*
G75*
%ADD14R,0.03950X0.03950*%
%ADD15R,0.03950X0.05524*%
%ADD16O,0.02142X0.04701*%
%ADD17O,0.04701X0.02142*%
%ADD18R,0.18910X0.18910*%
%ADD19R,0.03950X0.03950*%
%ADD20O,0.02260X0.04819*%
%ADD21O,0.04819X0.02260*%
%ADD22R,0.08595X0.08595*%
%ADD23R,0.05918X0.09461*%
%ADD24R,0.06512X0.02772*%
%ADD25R,0.04343X0.03162*%
%ADD26R,0.03162X0.03950*%
%ADD27R,0.03162X0.04343*%
G04:AMPARAMS|DCode=28|XSize=86.74mil|YSize=82.8mil|CornerRadius=22.7mil|HoleSize=0mil|Usage=FLASHONLY|Rotation=270.000|XOffset=0mil|YOffset=0mil|HoleType=Round|Shape=RoundedRectangle|*
%AMROUNDEDRECTD28*
21,1,0.08674,0.03740,0,0,270.0*
21,1,0.04134,0.08280,0,0,270.0*
1,1,0.04540,-0.01870,-0.02067*
1,1,0.04540,-0.01870,0.02067*
1,1,0.04540,0.01870,0.02067*
1,1,0.04540,0.01870,-0.02067*
%
%ADD28ROUNDEDRECTD28*%
%ADD29C,0.06509*%
%ADD30C,0.08674*%
%ADD31C,0.14580*%
%ADD32C,0.04737*%
%ADD33C,0.03162*%
D14*
X106102Y132480D02*
D03*
X100197D02*
D03*
X43504Y57942D02*
D03*
X37598D02*
D03*
X43504Y39832D02*
D03*
X37598D02*
D03*
X68307Y35501D02*
D03*
X62402D02*
D03*
X68307Y29596D02*
D03*
X62402D02*
D03*
X68307Y23690D02*
D03*
X62402D02*
D03*
D15*
X17323Y114591D02*
D03*
X6299Y136591D02*
D03*
X17323D02*
D03*
X6299Y114591D02*
D03*
D16*
X91732Y95866D02*
D03*
X93307D02*
D03*
X94882D02*
D03*
X96457D02*
D03*
X98032D02*
D03*
X99606D02*
D03*
X101181D02*
D03*
X102756D02*
D03*
X104331D02*
D03*
X105905D02*
D03*
X107480D02*
D03*
X109055D02*
D03*
Y118701D02*
D03*
X107480D02*
D03*
X105905D02*
D03*
X104331D02*
D03*
X102756D02*
D03*
X101181D02*
D03*
X99606D02*
D03*
X98032D02*
D03*
X96457D02*
D03*
X94882D02*
D03*
X93307D02*
D03*
X91732D02*
D03*
D17*
X111811Y98622D02*
D03*
Y100197D02*
D03*
Y101772D02*
D03*
Y103347D02*
D03*
Y104921D02*
D03*
Y106496D02*
D03*
Y108071D02*
D03*
Y109646D02*
D03*
Y111221D02*
D03*
Y112795D02*
D03*
Y114370D02*
D03*
Y115945D02*
D03*
X88976D02*
D03*
Y114370D02*
D03*
Y112795D02*
D03*
Y111221D02*
D03*
Y109646D02*
D03*
Y108071D02*
D03*
Y106496D02*
D03*
Y104921D02*
D03*
Y103347D02*
D03*
Y101772D02*
D03*
Y100197D02*
D03*
Y98622D02*
D03*
D18*
X100394Y107283D02*
D03*
D19*
X86890Y58071D02*
D03*
Y52165D02*
D03*
X29134Y129921D02*
D03*
Y135827D02*
D03*
D20*
X68307Y61584D02*
D03*
X66339D02*
D03*
X64370D02*
D03*
X62402D02*
D03*
X60433D02*
D03*
Y46820D02*
D03*
X62402D02*
D03*
X64370D02*
D03*
X66339D02*
D03*
X68307D02*
D03*
D21*
X56988Y58139D02*
D03*
Y56171D02*
D03*
Y54202D02*
D03*
Y52234D02*
D03*
Y50265D02*
D03*
X71752D02*
D03*
Y52234D02*
D03*
Y54202D02*
D03*
Y56171D02*
D03*
Y58139D02*
D03*
D22*
X64370Y54202D02*
D03*
D23*
X47638Y26575D02*
D03*
X24016D02*
D03*
D24*
X18504Y71328D02*
D03*
Y73887D02*
D03*
Y76446D02*
D03*
Y79005D02*
D03*
Y81564D02*
D03*
D25*
X35039Y136221D02*
D03*
Y130315D02*
D03*
X113779Y22244D02*
D03*
Y28150D02*
D03*
X107057Y22244D02*
D03*
Y28150D02*
D03*
X86890Y22244D02*
D03*
Y28150D02*
D03*
X93612Y22244D02*
D03*
Y28150D02*
D03*
X100335Y22244D02*
D03*
Y28150D02*
D03*
X29331Y100787D02*
D03*
Y106693D02*
D03*
X36614Y100787D02*
D03*
Y106693D02*
D03*
D26*
X125197Y39321D02*
D03*
X130905D02*
D03*
X125197Y49508D02*
D03*
X130905D02*
D03*
X125197Y59695D02*
D03*
X130905D02*
D03*
X125197Y69882D02*
D03*
X130905D02*
D03*
X125197Y29134D02*
D03*
X130905D02*
D03*
X13091Y105512D02*
D03*
X7382D02*
D03*
X13091Y99410D02*
D03*
X7382D02*
D03*
D27*
X43898Y52037D02*
D03*
X37992D02*
D03*
X43898Y45738D02*
D03*
X37992D02*
D03*
D28*
X7874Y62667D02*
D03*
Y90226D02*
D03*
D29*
X18504Y66604D02*
D03*
Y86289D02*
D03*
D30*
X147638Y122835D02*
D03*
Y112835D02*
D03*
Y102835D02*
D03*
Y92835D02*
D03*
Y82835D02*
D03*
Y72835D02*
D03*
Y62835D02*
D03*
Y52835D02*
D03*
Y42835D02*
D03*
Y32835D02*
D03*
X32461Y148031D02*
D03*
X42461D02*
D03*
X52461D02*
D03*
X62461D02*
D03*
X72461D02*
D03*
X82461D02*
D03*
X92461D02*
D03*
X102461D02*
D03*
X112461D02*
D03*
X122461D02*
D03*
X75394Y132480D02*
D03*
Y82087D02*
D03*
X125591D02*
D03*
X125787Y132480D02*
D03*
X122461Y9449D02*
D03*
X112461D02*
D03*
X102461D02*
D03*
X92461D02*
D03*
X82461D02*
D03*
X72461D02*
D03*
X62461D02*
D03*
X52461D02*
D03*
X42461D02*
D03*
X32461D02*
D03*
D31*
X9843Y9843D02*
D03*
X147638D02*
D03*
Y147638D02*
D03*
X9843D02*
D03*
D32*
X11417Y23858D02*
D03*
X6417D02*
D03*
X11417Y28858D02*
D03*
X6417D02*
D03*
X11417Y33858D02*
D03*
X6417D02*
D03*
X11417Y38858D02*
D03*
X6417D02*
D03*
Y43858D02*
D03*
X11417D02*
D03*
D33*
X93898Y100787D02*
D03*
Y105118D02*
D03*
Y109449D02*
D03*
Y113779D02*
D03*
X98228Y100787D02*
D03*
Y105118D02*
D03*
Y109449D02*
D03*
Y113779D02*
D03*
X102559Y100787D02*
D03*
Y105118D02*
D03*
Y109449D02*
D03*
Y113779D02*
D03*
X106890Y100787D02*
D03*
Y105118D02*
D03*
Y109449D02*
D03*
Y113779D02*
D03*
X66535Y56367D02*
D03*
Y52037D02*
D03*
X62205Y56367D02*
D03*
Y52037D02*
D03*
M02*
