G04*
G04 #@! TF.GenerationSoftware,Altium Limited,Altium Designer,19.1.6 (110)*
G04*
G04 Layer_Physical_Order=2*
G04 Layer_Color=16711680*
%FSLAX25Y25*%
%MOIN*%
G70*
G01*
G75*
%ADD12C,0.00787*%
%ADD39R,0.03150X0.03150*%
%ADD48C,0.01575*%
G04:AMPARAMS|DCode=50|XSize=78.74mil|YSize=74.8mil|CornerRadius=18.7mil|HoleSize=0mil|Usage=FLASHONLY|Rotation=270.000|XOffset=0mil|YOffset=0mil|HoleType=Round|Shape=RoundedRectangle|*
%AMROUNDEDRECTD50*
21,1,0.07874,0.03740,0,0,270.0*
21,1,0.04134,0.07480,0,0,270.0*
1,1,0.03740,-0.01870,-0.02067*
1,1,0.03740,-0.01870,0.02067*
1,1,0.03740,0.01870,0.02067*
1,1,0.03740,0.01870,-0.02067*
%
%ADD50ROUNDEDRECTD50*%
%ADD51C,0.05709*%
%ADD52C,0.07874*%
%ADD53C,0.13780*%
%ADD54C,0.03937*%
%ADD55C,0.02362*%
G36*
X149395Y156474D02*
X151085Y155961D01*
X152643Y155129D01*
X154008Y154008D01*
X155129Y152643D01*
X155961Y151085D01*
X156474Y149395D01*
X156644Y147670D01*
X156637Y147638D01*
Y8370D01*
X156637Y7874D01*
X156590Y7397D01*
X156502Y6502D01*
X156102Y5183D01*
X155452Y3968D01*
X154578Y2902D01*
X153513Y2028D01*
X152297Y1378D01*
X150978Y978D01*
X149607Y843D01*
X149606Y843D01*
X9843D01*
X9810Y837D01*
X8085Y1006D01*
X6395Y1519D01*
X4837Y2352D01*
X3472Y3472D01*
X2352Y4837D01*
X1519Y6395D01*
X1006Y8085D01*
X837Y9810D01*
X843Y9843D01*
X843Y149606D01*
X843Y149607D01*
X978Y150978D01*
X1378Y152297D01*
X2028Y153513D01*
X2902Y154578D01*
X3968Y155452D01*
X5183Y156102D01*
X6502Y156502D01*
X7390Y156590D01*
X7874Y156637D01*
X7874Y156637D01*
X8367Y156637D01*
X147638D01*
X147670Y156644D01*
X149395Y156474D01*
D02*
G37*
%LPC*%
G36*
X122461Y152638D02*
X121268Y152481D01*
X120158Y152021D01*
X119203Y151289D01*
X118471Y150335D01*
X118011Y149224D01*
X117854Y148031D01*
X118011Y146839D01*
X118471Y145728D01*
X119203Y144774D01*
X120158Y144042D01*
X121268Y143582D01*
X122461Y143425D01*
X123653Y143582D01*
X124764Y144042D01*
X125718Y144774D01*
X126450Y145728D01*
X126910Y146839D01*
X127067Y148031D01*
X126910Y149224D01*
X126450Y150335D01*
X125718Y151289D01*
X124764Y152021D01*
X123653Y152481D01*
X122461Y152638D01*
D02*
G37*
G36*
X112461D02*
X111268Y152481D01*
X110158Y152021D01*
X109204Y151289D01*
X108471Y150335D01*
X108011Y149224D01*
X107854Y148031D01*
X108011Y146839D01*
X108471Y145728D01*
X109204Y144774D01*
X110158Y144042D01*
X111268Y143582D01*
X112461Y143425D01*
X113653Y143582D01*
X114764Y144042D01*
X115718Y144774D01*
X116450Y145728D01*
X116910Y146839D01*
X117067Y148031D01*
X116910Y149224D01*
X116450Y150335D01*
X115718Y151289D01*
X114764Y152021D01*
X113653Y152481D01*
X112461Y152638D01*
D02*
G37*
G36*
X102461D02*
X101268Y152481D01*
X100157Y152021D01*
X99203Y151289D01*
X98471Y150335D01*
X98011Y149224D01*
X97854Y148031D01*
X98011Y146839D01*
X98471Y145728D01*
X99203Y144774D01*
X100157Y144042D01*
X101268Y143582D01*
X102461Y143425D01*
X103653Y143582D01*
X104764Y144042D01*
X105718Y144774D01*
X106450Y145728D01*
X106910Y146839D01*
X107067Y148031D01*
X106910Y149224D01*
X106450Y150335D01*
X105718Y151289D01*
X104764Y152021D01*
X103653Y152481D01*
X102461Y152638D01*
D02*
G37*
G36*
X92461D02*
X91268Y152481D01*
X90158Y152021D01*
X89204Y151289D01*
X88471Y150335D01*
X88011Y149224D01*
X87854Y148031D01*
X88011Y146839D01*
X88471Y145728D01*
X89204Y144774D01*
X90158Y144042D01*
X91268Y143582D01*
X92461Y143425D01*
X93653Y143582D01*
X94764Y144042D01*
X95718Y144774D01*
X96450Y145728D01*
X96910Y146839D01*
X97067Y148031D01*
X96910Y149224D01*
X96450Y150335D01*
X95718Y151289D01*
X94764Y152021D01*
X93653Y152481D01*
X92461Y152638D01*
D02*
G37*
G36*
X82461D02*
X81268Y152481D01*
X80158Y152021D01*
X79203Y151289D01*
X78471Y150335D01*
X78011Y149224D01*
X77854Y148031D01*
X78011Y146839D01*
X78471Y145728D01*
X79203Y144774D01*
X80158Y144042D01*
X81268Y143582D01*
X82461Y143425D01*
X83653Y143582D01*
X84764Y144042D01*
X85718Y144774D01*
X86450Y145728D01*
X86910Y146839D01*
X87067Y148031D01*
X86910Y149224D01*
X86450Y150335D01*
X85718Y151289D01*
X84764Y152021D01*
X83653Y152481D01*
X82461Y152638D01*
D02*
G37*
G36*
X72461D02*
X71268Y152481D01*
X70157Y152021D01*
X69204Y151289D01*
X68471Y150335D01*
X68011Y149224D01*
X67854Y148031D01*
X68011Y146839D01*
X68471Y145728D01*
X69204Y144774D01*
X70157Y144042D01*
X71268Y143582D01*
X72461Y143425D01*
X73653Y143582D01*
X74764Y144042D01*
X75718Y144774D01*
X76450Y145728D01*
X76910Y146839D01*
X77067Y148031D01*
X76910Y149224D01*
X76450Y150335D01*
X75718Y151289D01*
X74764Y152021D01*
X73653Y152481D01*
X72461Y152638D01*
D02*
G37*
G36*
X62461D02*
X61268Y152481D01*
X60158Y152021D01*
X59203Y151289D01*
X58471Y150335D01*
X58011Y149224D01*
X57854Y148031D01*
X58011Y146839D01*
X58471Y145728D01*
X59203Y144774D01*
X60158Y144042D01*
X61268Y143582D01*
X62461Y143425D01*
X63653Y143582D01*
X64764Y144042D01*
X65718Y144774D01*
X66450Y145728D01*
X66910Y146839D01*
X67067Y148031D01*
X66910Y149224D01*
X66450Y150335D01*
X65718Y151289D01*
X64764Y152021D01*
X63653Y152481D01*
X62461Y152638D01*
D02*
G37*
G36*
X52461D02*
X51268Y152481D01*
X50157Y152021D01*
X49204Y151289D01*
X48471Y150335D01*
X48011Y149224D01*
X47854Y148031D01*
X48011Y146839D01*
X48471Y145728D01*
X49204Y144774D01*
X50157Y144042D01*
X51268Y143582D01*
X52461Y143425D01*
X53653Y143582D01*
X54764Y144042D01*
X55718Y144774D01*
X56450Y145728D01*
X56910Y146839D01*
X57067Y148031D01*
X56910Y149224D01*
X56450Y150335D01*
X55718Y151289D01*
X54764Y152021D01*
X53653Y152481D01*
X52461Y152638D01*
D02*
G37*
G36*
X42461D02*
X41268Y152481D01*
X40157Y152021D01*
X39204Y151289D01*
X38471Y150335D01*
X38011Y149224D01*
X37854Y148031D01*
X38011Y146839D01*
X38471Y145728D01*
X39204Y144774D01*
X40157Y144042D01*
X41268Y143582D01*
X42461Y143425D01*
X43653Y143582D01*
X44764Y144042D01*
X45718Y144774D01*
X46450Y145728D01*
X46910Y146839D01*
X47067Y148031D01*
X46910Y149224D01*
X46450Y150335D01*
X45718Y151289D01*
X44764Y152021D01*
X43653Y152481D01*
X42461Y152638D01*
D02*
G37*
G36*
X32461D02*
X31268Y152481D01*
X30158Y152021D01*
X29204Y151289D01*
X28471Y150335D01*
X28011Y149224D01*
X27854Y148031D01*
X28011Y146839D01*
X28471Y145728D01*
X29204Y144774D01*
X30158Y144042D01*
X31268Y143582D01*
X32461Y143425D01*
X33653Y143582D01*
X34764Y144042D01*
X35718Y144774D01*
X36450Y145728D01*
X36910Y146839D01*
X37067Y148031D01*
X36910Y149224D01*
X36450Y150335D01*
X35718Y151289D01*
X34764Y152021D01*
X33653Y152481D01*
X32461Y152638D01*
D02*
G37*
G36*
X147638Y155194D02*
X146164Y155049D01*
X144746Y154619D01*
X143440Y153920D01*
X142295Y152981D01*
X141355Y151836D01*
X140657Y150529D01*
X140227Y149112D01*
X140082Y147638D01*
X140227Y146164D01*
X140657Y144746D01*
X141355Y143440D01*
X142295Y142295D01*
X143440Y141355D01*
X144746Y140657D01*
X146164Y140227D01*
X147638Y140082D01*
X149112Y140227D01*
X150529Y140657D01*
X151836Y141355D01*
X152981Y142295D01*
X153920Y143440D01*
X154619Y144746D01*
X155049Y146164D01*
X155194Y147638D01*
X155049Y149112D01*
X154619Y150529D01*
X153920Y151836D01*
X152981Y152981D01*
X151836Y153920D01*
X150529Y154619D01*
X149112Y155049D01*
X147638Y155194D01*
D02*
G37*
G36*
X9843D02*
X8368Y155049D01*
X6951Y154619D01*
X5645Y153920D01*
X4500Y152981D01*
X3560Y151836D01*
X2862Y150529D01*
X2432Y149112D01*
X2286Y147638D01*
X2432Y146164D01*
X2862Y144746D01*
X3560Y143440D01*
X4500Y142295D01*
X5645Y141355D01*
X6951Y140657D01*
X8368Y140227D01*
X9843Y140082D01*
X11317Y140227D01*
X12734Y140657D01*
X14040Y141355D01*
X15186Y142295D01*
X16125Y143440D01*
X16823Y144746D01*
X17253Y146164D01*
X17399Y147638D01*
X17253Y149112D01*
X16823Y150529D01*
X16125Y151836D01*
X15186Y152981D01*
X14040Y153920D01*
X12734Y154619D01*
X11317Y155049D01*
X9843Y155194D01*
D02*
G37*
G36*
X103347Y141012D02*
X50394D01*
X49841Y140902D01*
X49372Y140589D01*
X24175Y115392D01*
X23862Y114923D01*
X23752Y114370D01*
Y86063D01*
X22992D01*
Y81653D01*
X27402D01*
Y86063D01*
X26642D01*
Y113771D01*
X50992Y138122D01*
X66075D01*
Y114764D01*
X66185Y114211D01*
X66498Y113742D01*
X69055Y111185D01*
Y108819D01*
X73465D01*
Y109980D01*
X77127D01*
X80269Y106838D01*
X80240Y106693D01*
X80381Y105986D01*
X80781Y105387D01*
X81380Y104987D01*
X82087Y104846D01*
X82793Y104987D01*
X83392Y105387D01*
X83793Y105986D01*
X83933Y106693D01*
X83793Y107399D01*
X83392Y107999D01*
X82793Y108399D01*
X82087Y108539D01*
X81613Y108445D01*
X78297Y111762D01*
X77959Y111988D01*
X77559Y112067D01*
X77559Y112067D01*
X73465D01*
Y113228D01*
X71099D01*
X68965Y115362D01*
Y138122D01*
X102748D01*
X104657Y136212D01*
Y133577D01*
X104396Y133187D01*
X104256Y132480D01*
X104396Y131774D01*
X104797Y131175D01*
X105396Y130774D01*
X106102Y130634D01*
X106809Y130774D01*
X107199Y131035D01*
X116134D01*
X131626Y115543D01*
Y100992D01*
X130854Y100221D01*
X130354Y100428D01*
Y100630D01*
X125945D01*
Y99469D01*
X123425D01*
X123425Y99469D01*
X123026Y99389D01*
X122687Y99163D01*
X122356Y98832D01*
X122047Y98894D01*
X121340Y98753D01*
X120741Y98353D01*
X120341Y97754D01*
X120201Y97047D01*
X120341Y96340D01*
X120741Y95741D01*
X121340Y95341D01*
X122047Y95201D01*
X122754Y95341D01*
X123353Y95741D01*
X123753Y96340D01*
X123893Y97047D01*
X124337Y97382D01*
X125945D01*
Y96220D01*
X130194D01*
X130596Y95897D01*
X130639Y95838D01*
X130774Y95160D01*
X131175Y94560D01*
X131384Y94421D01*
X131278Y93890D01*
X130986Y93832D01*
X130387Y93432D01*
X129987Y92833D01*
X129846Y92126D01*
X129987Y91419D01*
X130358Y90864D01*
X130416Y90701D01*
Y90301D01*
X130387Y90282D01*
X129987Y89683D01*
X129846Y88976D01*
X129987Y88270D01*
X130387Y87670D01*
X130416Y87651D01*
Y87151D01*
X130387Y87132D01*
X129987Y86533D01*
X129846Y85827D01*
X129987Y85120D01*
X130387Y84521D01*
X130986Y84121D01*
X131693Y83980D01*
X132399Y84121D01*
X132998Y84521D01*
X133173Y84783D01*
X134645D01*
X134645Y84783D01*
X135045Y84862D01*
X135383Y85089D01*
X142086Y91791D01*
X143169D01*
X143188Y91642D01*
X143649Y90531D01*
X144381Y89578D01*
X145335Y88845D01*
X146446Y88385D01*
X147638Y88228D01*
X148830Y88385D01*
X149941Y88845D01*
X150895Y89578D01*
X151627Y90531D01*
X152087Y91642D01*
X152244Y92835D01*
X152087Y94027D01*
X151627Y95138D01*
X150895Y96092D01*
X149941Y96824D01*
X148830Y97284D01*
X147638Y97441D01*
X146446Y97284D01*
X145335Y96824D01*
X144381Y96092D01*
X143649Y95138D01*
X143188Y94027D01*
X143169Y93878D01*
X141713D01*
X141581Y94024D01*
X141421Y94342D01*
X141515Y94482D01*
X141595Y94882D01*
X141595Y94882D01*
Y101143D01*
X142243Y101791D01*
X143169D01*
X143188Y101642D01*
X143649Y100531D01*
X144381Y99577D01*
X145335Y98845D01*
X146446Y98385D01*
X147638Y98228D01*
X148830Y98385D01*
X149941Y98845D01*
X150895Y99577D01*
X151627Y100531D01*
X152087Y101642D01*
X152244Y102835D01*
X152087Y104027D01*
X151627Y105138D01*
X150895Y106092D01*
X149941Y106824D01*
X148830Y107284D01*
X147638Y107441D01*
X146446Y107284D01*
X145335Y106824D01*
X144381Y106092D01*
X143649Y105138D01*
X143188Y104027D01*
X143169Y103878D01*
X141811D01*
X141412Y103799D01*
X141073Y103573D01*
X141073Y103573D01*
X140126Y102626D01*
X139626Y102833D01*
Y108820D01*
X142598Y111791D01*
X143169D01*
X143188Y111642D01*
X143649Y110531D01*
X144381Y109578D01*
X145335Y108845D01*
X146446Y108385D01*
X147638Y108228D01*
X148830Y108385D01*
X149941Y108845D01*
X150895Y109578D01*
X151627Y110531D01*
X152087Y111642D01*
X152244Y112835D01*
X152087Y114027D01*
X151627Y115138D01*
X150895Y116092D01*
X149941Y116824D01*
X148830Y117284D01*
X147638Y117441D01*
X146446Y117284D01*
X145335Y116824D01*
X144381Y116092D01*
X143649Y115138D01*
X143188Y114027D01*
X143169Y113878D01*
X142165D01*
X141766Y113799D01*
X141427Y113573D01*
X141427Y113573D01*
X138197Y110343D01*
X137697Y110550D01*
Y115120D01*
X137697Y115120D01*
X137658Y115318D01*
Y116300D01*
X142751Y121393D01*
X143340Y121275D01*
X143649Y120531D01*
X144381Y119578D01*
X145335Y118845D01*
X146446Y118385D01*
X147638Y118228D01*
X148830Y118385D01*
X149941Y118845D01*
X150895Y119578D01*
X151627Y120531D01*
X152087Y121642D01*
X152244Y122835D01*
X152087Y124027D01*
X151627Y125138D01*
X150895Y126092D01*
X149941Y126824D01*
X148830Y127284D01*
X147638Y127441D01*
X146446Y127284D01*
X145335Y126824D01*
X144381Y126092D01*
X143649Y125138D01*
X143188Y124027D01*
X143169Y123878D01*
X142717D01*
X142317Y123799D01*
X141979Y123573D01*
X141979Y123573D01*
X135876Y117470D01*
X135650Y117132D01*
X135571Y116732D01*
X135571Y116732D01*
Y115160D01*
X135571Y115160D01*
X135610Y114962D01*
Y100472D01*
X134900Y99762D01*
X134439Y100008D01*
X134516Y100394D01*
Y116142D01*
X134406Y116695D01*
X134093Y117164D01*
X123102Y128154D01*
X123433Y128531D01*
X123484Y128491D01*
X124595Y128031D01*
X125787Y127874D01*
X126980Y128031D01*
X128091Y128491D01*
X129045Y129223D01*
X129777Y130177D01*
X130237Y131288D01*
X130394Y132480D01*
X130237Y133672D01*
X129777Y134783D01*
X129045Y135738D01*
X128091Y136469D01*
X126980Y136930D01*
X125787Y137087D01*
X124595Y136930D01*
X123484Y136469D01*
X122530Y135738D01*
X121798Y134783D01*
X121338Y133672D01*
X121181Y132480D01*
X121338Y131288D01*
X121798Y130177D01*
X121838Y130126D01*
X121461Y129795D01*
X117754Y133502D01*
X117285Y133815D01*
X116732Y133925D01*
X107547D01*
Y136811D01*
X107437Y137364D01*
X107124Y137833D01*
X104368Y140589D01*
X103900Y140902D01*
X103347Y141012D01*
D02*
G37*
G36*
X75394Y137087D02*
X74202Y136930D01*
X73090Y136469D01*
X72136Y135738D01*
X71404Y134783D01*
X70944Y133672D01*
X70787Y132480D01*
X70944Y131288D01*
X71404Y130177D01*
X72136Y129223D01*
X73090Y128491D01*
X74202Y128031D01*
X75394Y127874D01*
X76586Y128031D01*
X77697Y128491D01*
X78651Y129223D01*
X79383Y130177D01*
X79843Y131288D01*
X80000Y132480D01*
X79843Y133672D01*
X79383Y134783D01*
X78651Y135738D01*
X77697Y136469D01*
X76586Y136930D01*
X75394Y137087D01*
D02*
G37*
G36*
X73622Y107480D02*
X71653D01*
Y105512D01*
X73622D01*
Y107480D01*
D02*
G37*
G36*
X70866D02*
X68898D01*
Y105512D01*
X70866D01*
Y107480D01*
D02*
G37*
G36*
X130512Y106693D02*
X128543D01*
Y104724D01*
X130512D01*
Y106693D01*
D02*
G37*
G36*
X127756D02*
X125787D01*
Y104724D01*
X127756D01*
Y106693D01*
D02*
G37*
G36*
X130512Y103937D02*
X128543D01*
Y101969D01*
X130512D01*
Y103937D01*
D02*
G37*
G36*
X127756D02*
X125787D01*
Y101969D01*
X127756D01*
Y103937D01*
D02*
G37*
G36*
X73622Y104724D02*
X71260D01*
X68898D01*
Y102756D01*
X70046D01*
X70198Y102256D01*
X69954Y102093D01*
X69554Y101494D01*
X69413Y100787D01*
X69554Y100081D01*
X69954Y99482D01*
X70553Y99081D01*
X71260Y98941D01*
X71966Y99081D01*
X72566Y99482D01*
X72966Y100081D01*
X73106Y100787D01*
X72966Y101494D01*
X72566Y102093D01*
X72322Y102256D01*
X72474Y102756D01*
X73622D01*
Y104724D01*
D02*
G37*
G36*
X9744Y94842D02*
X6004D01*
X5029Y94648D01*
X4202Y94095D01*
X3649Y93268D01*
X3455Y92293D01*
Y88159D01*
X3649Y87183D01*
X4202Y86356D01*
X5029Y85804D01*
X6004Y85610D01*
X9744D01*
X10719Y85804D01*
X11547Y86356D01*
X12099Y87183D01*
X12293Y88159D01*
Y92293D01*
X12099Y93268D01*
X11547Y94095D01*
X10719Y94648D01*
X9744Y94842D01*
D02*
G37*
G36*
X147638Y87441D02*
X146446Y87284D01*
X145335Y86824D01*
X144381Y86092D01*
X143649Y85138D01*
X143188Y84027D01*
X143169Y83878D01*
X134606D01*
X134606Y83878D01*
X134207Y83799D01*
X133868Y83573D01*
X133868Y83573D01*
X132002Y81706D01*
X131693Y81768D01*
X130986Y81627D01*
X130607Y81374D01*
X130141Y81664D01*
X130197Y82087D01*
X130040Y83279D01*
X129580Y84390D01*
X128848Y85344D01*
X127894Y86076D01*
X126783Y86536D01*
X125591Y86693D01*
X124398Y86536D01*
X123287Y86076D01*
X122333Y85344D01*
X121601Y84390D01*
X121141Y83279D01*
X120984Y82087D01*
X121141Y80894D01*
X121601Y79783D01*
X122333Y78829D01*
X123287Y78097D01*
X124398Y77637D01*
X125591Y77480D01*
X126783Y77637D01*
X127894Y78097D01*
X128848Y78829D01*
X129408Y79560D01*
X129943Y79435D01*
X129987Y79215D01*
X130387Y78616D01*
X130420Y78593D01*
Y78171D01*
X130354Y78036D01*
X129969Y77460D01*
X129829Y76754D01*
X129969Y76047D01*
X130369Y75448D01*
X130968Y75048D01*
X131675Y74907D01*
X132382Y75048D01*
X132981Y75448D01*
X133156Y75710D01*
X134625D01*
X138238Y72097D01*
X138238Y72097D01*
X138577Y71870D01*
X138976Y71791D01*
X143169D01*
X143188Y71642D01*
X143649Y70531D01*
X144381Y69577D01*
X145335Y68845D01*
X146446Y68385D01*
X147638Y68228D01*
X148830Y68385D01*
X149941Y68845D01*
X150895Y69577D01*
X151627Y70531D01*
X152087Y71642D01*
X152244Y72835D01*
X152087Y74027D01*
X151627Y75138D01*
X150895Y76092D01*
X149941Y76824D01*
X148830Y77284D01*
X147638Y77441D01*
X146446Y77284D01*
X145335Y76824D01*
X144381Y76092D01*
X143649Y75138D01*
X143188Y74027D01*
X143169Y73878D01*
X139409D01*
X135795Y77492D01*
X135457Y77718D01*
X135057Y77797D01*
X135057Y77797D01*
X133156D01*
X132981Y78059D01*
X132948Y78082D01*
Y78504D01*
X133014Y78638D01*
X133399Y79215D01*
X133539Y79921D01*
X133478Y80230D01*
X135039Y81791D01*
X143169D01*
X143188Y81642D01*
X143649Y80532D01*
X144381Y79577D01*
X145335Y78845D01*
X146446Y78385D01*
X147638Y78228D01*
X148830Y78385D01*
X149941Y78845D01*
X150895Y79577D01*
X151627Y80532D01*
X152087Y81642D01*
X152244Y82835D01*
X152087Y84027D01*
X151627Y85138D01*
X150895Y86092D01*
X149941Y86824D01*
X148830Y87284D01*
X147638Y87441D01*
D02*
G37*
G36*
X18504Y89803D02*
X17594Y89683D01*
X16747Y89332D01*
X16019Y88774D01*
X15461Y88046D01*
X15109Y87198D01*
X14990Y86289D01*
X15109Y85379D01*
X15461Y84532D01*
X16019Y83804D01*
X16747Y83245D01*
X17594Y82894D01*
X18504Y82775D01*
X19413Y82894D01*
X20261Y83245D01*
X20989Y83804D01*
X21547Y84532D01*
X21899Y85379D01*
X22018Y86289D01*
X21899Y87198D01*
X21547Y88046D01*
X20989Y88774D01*
X20261Y89332D01*
X19413Y89683D01*
X18504Y89803D01*
D02*
G37*
G36*
X27559Y80315D02*
X25591D01*
Y78347D01*
X27559D01*
Y80315D01*
D02*
G37*
G36*
X24803D02*
X22835D01*
Y78347D01*
X24803D01*
Y80315D01*
D02*
G37*
G36*
X75394Y86693D02*
X74202Y86536D01*
X73090Y86076D01*
X72136Y85344D01*
X71404Y84390D01*
X70944Y83279D01*
X70787Y82087D01*
X70944Y80894D01*
X71404Y79783D01*
X72136Y78829D01*
X73090Y78097D01*
X74202Y77637D01*
X75394Y77480D01*
X76586Y77637D01*
X77697Y78097D01*
X78651Y78829D01*
X79383Y79783D01*
X79843Y80894D01*
X80000Y82087D01*
X79843Y83279D01*
X79383Y84390D01*
X78651Y85344D01*
X77697Y86076D01*
X76586Y86536D01*
X75394Y86693D01*
D02*
G37*
G36*
X27559Y77559D02*
X25591D01*
Y75590D01*
X27559D01*
Y77559D01*
D02*
G37*
G36*
X24803D02*
X22835D01*
Y75590D01*
X24803D01*
Y77559D01*
D02*
G37*
G36*
X35827Y66217D02*
X35120Y66076D01*
X34521Y65676D01*
X34346Y65414D01*
X31523D01*
X31415Y65486D01*
X30709Y65626D01*
X30002Y65486D01*
X29403Y65085D01*
X29003Y64486D01*
X28862Y63779D01*
X29003Y63073D01*
X29403Y62474D01*
X30002Y62074D01*
X30709Y61933D01*
X31415Y62074D01*
X32014Y62474D01*
X32415Y63073D01*
X32465Y63326D01*
X34346D01*
X34521Y63064D01*
X35120Y62664D01*
X35827Y62524D01*
X36533Y62664D01*
X37132Y63064D01*
X37533Y63664D01*
X37673Y64370D01*
X37533Y65077D01*
X37132Y65676D01*
X36533Y66076D01*
X35827Y66217D01*
D02*
G37*
G36*
X18504Y70118D02*
X17594Y69998D01*
X16747Y69647D01*
X16019Y69089D01*
X15461Y68361D01*
X15109Y67513D01*
X14990Y66604D01*
X15109Y65694D01*
X15461Y64847D01*
X16019Y64119D01*
X16747Y63560D01*
X17594Y63209D01*
X18504Y63089D01*
X19413Y63209D01*
X20261Y63560D01*
X20989Y64119D01*
X21547Y64847D01*
X21899Y65694D01*
X22018Y66604D01*
X21899Y67513D01*
X21547Y68361D01*
X20989Y69089D01*
X20261Y69647D01*
X19413Y69998D01*
X18504Y70118D01*
D02*
G37*
G36*
X48819Y67594D02*
X48112Y67454D01*
X47513Y67054D01*
X47113Y66455D01*
X46972Y65748D01*
X47113Y65041D01*
X47513Y64442D01*
X48112Y64042D01*
X48819Y63902D01*
X49525Y64042D01*
X50125Y64442D01*
X50300Y64704D01*
X72402D01*
X74153Y62954D01*
Y61700D01*
X73973Y61275D01*
X73973Y61275D01*
Y61275D01*
X73653Y61243D01*
X73645Y61284D01*
X73556Y61730D01*
X73156Y62329D01*
X72557Y62730D01*
X71850Y62870D01*
X71144Y62730D01*
X70545Y62329D01*
X70370Y62067D01*
X58465D01*
X58065Y61988D01*
X57727Y61762D01*
X57727Y61762D01*
X51624Y55659D01*
X51398Y55321D01*
X51319Y54921D01*
X51319Y54921D01*
Y50693D01*
X51056Y50518D01*
X50656Y49919D01*
X50516Y49213D01*
X50656Y48506D01*
X51056Y47907D01*
X51656Y47507D01*
X52362Y47366D01*
X53069Y47507D01*
X53668Y47907D01*
X54068Y48506D01*
X54209Y49213D01*
X54068Y49919D01*
X53668Y50518D01*
X53406Y50693D01*
Y54489D01*
X58897Y59980D01*
X70370D01*
X70545Y59718D01*
X71144Y59318D01*
X71850Y59177D01*
X72557Y59318D01*
X73156Y59718D01*
X73556Y60317D01*
X73645Y60763D01*
X73653Y60804D01*
X73973Y60772D01*
Y60772D01*
X73973Y60772D01*
X74153Y60347D01*
Y50984D01*
X74153Y50984D01*
X74233Y50585D01*
X74459Y50246D01*
X75183Y49522D01*
X75122Y49213D01*
X75263Y48506D01*
X75663Y47907D01*
X76262Y47507D01*
X76968Y47366D01*
X77675Y47507D01*
X78274Y47907D01*
X78674Y48506D01*
X78815Y49213D01*
X78674Y49919D01*
X78274Y50518D01*
X77675Y50919D01*
X76968Y51059D01*
X76660Y50998D01*
X76240Y51417D01*
Y63386D01*
X76240Y63386D01*
X76161Y63785D01*
X75935Y64124D01*
X75935Y64124D01*
X73573Y66486D01*
X73234Y66712D01*
X72835Y66792D01*
X72835Y66792D01*
X50300D01*
X50125Y67054D01*
X49525Y67454D01*
X48819Y67594D01*
D02*
G37*
G36*
X87008D02*
X86301Y67454D01*
X85702Y67054D01*
X85302Y66455D01*
X85161Y65748D01*
X85302Y65041D01*
X85702Y64442D01*
X86301Y64042D01*
X87008Y63902D01*
X87714Y64042D01*
X88314Y64442D01*
X88489Y64704D01*
X94253D01*
X95656Y63301D01*
X95594Y62992D01*
X95735Y62286D01*
X96135Y61686D01*
X96734Y61286D01*
X97441Y61146D01*
X98148Y61286D01*
X98747Y61686D01*
X99147Y62286D01*
X99287Y62992D01*
X99147Y63699D01*
X98747Y64298D01*
X98148Y64698D01*
X97441Y64839D01*
X97132Y64777D01*
X95423Y66486D01*
X95084Y66712D01*
X94685Y66792D01*
X94685Y66792D01*
X88489D01*
X88314Y67054D01*
X87714Y67454D01*
X87008Y67594D01*
D02*
G37*
G36*
X108268Y69366D02*
X107561Y69226D01*
X106962Y68825D01*
X106562Y68226D01*
X106421Y67520D01*
X106562Y66813D01*
X106962Y66214D01*
Y65835D01*
X106848Y65758D01*
X106448Y65159D01*
X106307Y64453D01*
X106448Y63746D01*
X106740Y63308D01*
X106765Y62723D01*
X106365Y62124D01*
X106224Y61417D01*
X106365Y60711D01*
X106765Y60112D01*
X106794Y60093D01*
Y59592D01*
X106765Y59573D01*
X106365Y58974D01*
X106224Y58268D01*
X106365Y57561D01*
X106765Y56962D01*
X107364Y56562D01*
X108071Y56421D01*
X108380Y56483D01*
X132766Y32097D01*
X132766Y32097D01*
X133105Y31870D01*
X133504Y31791D01*
X143169D01*
X143188Y31642D01*
X143649Y30531D01*
X144381Y29577D01*
X145335Y28845D01*
X146446Y28385D01*
X147638Y28228D01*
X148830Y28385D01*
X149941Y28845D01*
X150895Y29577D01*
X151627Y30531D01*
X152087Y31642D01*
X152244Y32835D01*
X152087Y34027D01*
X151627Y35138D01*
X150895Y36092D01*
X149941Y36824D01*
X148830Y37284D01*
X147638Y37441D01*
X146446Y37284D01*
X145335Y36824D01*
X144381Y36092D01*
X143649Y35138D01*
X143188Y34027D01*
X143169Y33878D01*
X133936D01*
X126622Y41193D01*
X126714Y41489D01*
X126849Y41673D01*
X143184D01*
X143188Y41642D01*
X143649Y40532D01*
X144381Y39577D01*
X145335Y38845D01*
X146446Y38385D01*
X147638Y38228D01*
X148830Y38385D01*
X149941Y38845D01*
X150895Y39577D01*
X151627Y40532D01*
X152087Y41642D01*
X152244Y42835D01*
X152087Y44027D01*
X151627Y45138D01*
X150895Y46092D01*
X149941Y46824D01*
X148830Y47284D01*
X147638Y47441D01*
X146446Y47284D01*
X145335Y46824D01*
X144381Y46092D01*
X143649Y45138D01*
X143188Y44027D01*
X143153Y43760D01*
X127204D01*
X119661Y51303D01*
X119712Y51530D01*
X119880Y51791D01*
X143169D01*
X143188Y51642D01*
X143649Y50532D01*
X144381Y49578D01*
X145335Y48845D01*
X146446Y48385D01*
X147638Y48228D01*
X148830Y48385D01*
X149941Y48845D01*
X150895Y49578D01*
X151627Y50532D01*
X152087Y51642D01*
X152244Y52835D01*
X152087Y54027D01*
X151627Y55138D01*
X150895Y56092D01*
X149941Y56824D01*
X148830Y57284D01*
X147638Y57441D01*
X146446Y57284D01*
X145335Y56824D01*
X144381Y56092D01*
X143649Y55138D01*
X143188Y54027D01*
X143169Y53878D01*
X120204D01*
X112763Y61319D01*
X112910Y61686D01*
X112998Y61791D01*
X143169D01*
X143188Y61642D01*
X143649Y60532D01*
X144381Y59578D01*
X145335Y58845D01*
X146446Y58385D01*
X147638Y58228D01*
X148830Y58385D01*
X149941Y58845D01*
X150895Y59578D01*
X151627Y60532D01*
X152087Y61642D01*
X152244Y62835D01*
X152087Y64027D01*
X151627Y65138D01*
X150895Y66092D01*
X149941Y66824D01*
X148830Y67284D01*
X147638Y67441D01*
X146446Y67284D01*
X145335Y66824D01*
X144381Y66092D01*
X143649Y65138D01*
X143188Y64027D01*
X143169Y63878D01*
X113385D01*
X110053Y67211D01*
X110114Y67520D01*
X109974Y68226D01*
X109573Y68825D01*
X108974Y69226D01*
X108268Y69366D01*
D02*
G37*
G36*
X9744Y67283D02*
X6004D01*
X5029Y67089D01*
X4202Y66536D01*
X3649Y65709D01*
X3455Y64734D01*
Y60600D01*
X3649Y59624D01*
X4202Y58797D01*
X5029Y58245D01*
X6004Y58051D01*
X9744D01*
X10719Y58245D01*
X11547Y58797D01*
X12099Y59624D01*
X12293Y60600D01*
Y64734D01*
X12099Y65709D01*
X11547Y66536D01*
X10719Y67089D01*
X9744Y67283D01*
D02*
G37*
G36*
X97835Y56965D02*
X97128Y56824D01*
X96529Y56424D01*
X96129Y55825D01*
X95988Y55118D01*
X96050Y54809D01*
X94450Y53209D01*
X84355D01*
X84180Y53471D01*
X83581Y53871D01*
X82874Y54012D01*
X82167Y53871D01*
X81568Y53471D01*
X81168Y52872D01*
X81028Y52165D01*
X81168Y51459D01*
X81568Y50860D01*
X82167Y50459D01*
X82874Y50319D01*
X83581Y50459D01*
X84180Y50860D01*
X84355Y51122D01*
X94882D01*
X94882Y51122D01*
X95281Y51201D01*
X95620Y51427D01*
X97526Y53333D01*
X97835Y53272D01*
X98541Y53412D01*
X99140Y53812D01*
X99541Y54412D01*
X99681Y55118D01*
X99541Y55825D01*
X99140Y56424D01*
X98541Y56824D01*
X97835Y56965D01*
D02*
G37*
G36*
X11417Y46479D02*
X10739Y46390D01*
X10107Y46128D01*
X9564Y45711D01*
X9200Y45237D01*
X8917Y45199D01*
X8635Y45237D01*
X8270Y45711D01*
X7728Y46128D01*
X7096Y46390D01*
X6417Y46479D01*
X5739Y46390D01*
X5107Y46128D01*
X4564Y45711D01*
X4148Y45169D01*
X3886Y44537D01*
X3796Y43858D01*
X3886Y43180D01*
X4148Y42548D01*
X4564Y42005D01*
X5039Y41641D01*
X5076Y41358D01*
X5039Y41076D01*
X4564Y40712D01*
X4148Y40169D01*
X3886Y39537D01*
X3796Y38858D01*
X3886Y38180D01*
X4148Y37548D01*
X4564Y37005D01*
X5039Y36641D01*
X5076Y36358D01*
X5039Y36076D01*
X4564Y35712D01*
X4148Y35169D01*
X3886Y34537D01*
X3796Y33858D01*
X3886Y33180D01*
X4148Y32548D01*
X4564Y32005D01*
X5039Y31641D01*
X5076Y31358D01*
X5039Y31076D01*
X4564Y30711D01*
X4148Y30169D01*
X3886Y29537D01*
X3796Y28858D01*
X3886Y28180D01*
X4148Y27548D01*
X4564Y27005D01*
X4894Y26752D01*
X4930Y26623D01*
X4899Y26184D01*
X4885Y26157D01*
X4452Y25824D01*
X4010Y25248D01*
X3732Y24578D01*
X3689Y24252D01*
X6417D01*
Y23858D01*
X6811D01*
Y21130D01*
X7137Y21173D01*
X7807Y21451D01*
X8383Y21893D01*
X8716Y22327D01*
X8743Y22340D01*
X9182Y22371D01*
X9311Y22335D01*
X9564Y22005D01*
X10107Y21589D01*
X10739Y21327D01*
X11417Y21237D01*
X12096Y21327D01*
X12728Y21589D01*
X13271Y22005D01*
X13687Y22548D01*
X13949Y23180D01*
X14038Y23858D01*
X13949Y24537D01*
X13687Y25169D01*
X13271Y25712D01*
X12796Y26076D01*
X12758Y26358D01*
X12796Y26641D01*
X13271Y27005D01*
X13687Y27548D01*
X13949Y28180D01*
X14038Y28858D01*
X13949Y29537D01*
X13687Y30169D01*
X13271Y30711D01*
X12796Y31076D01*
X12758Y31358D01*
X12796Y31641D01*
X13271Y32005D01*
X13687Y32548D01*
X13949Y33180D01*
X14038Y33858D01*
X13949Y34537D01*
X13687Y35169D01*
X13271Y35712D01*
X12796Y36076D01*
X12758Y36358D01*
X12796Y36641D01*
X13271Y37005D01*
X13687Y37548D01*
X13949Y38180D01*
X14038Y38858D01*
X13949Y39537D01*
X13687Y40169D01*
X13271Y40712D01*
X12796Y41076D01*
X12758Y41358D01*
X12796Y41641D01*
X13271Y42005D01*
X13687Y42548D01*
X13949Y43180D01*
X14038Y43858D01*
X13949Y44537D01*
X13687Y45169D01*
X13271Y45711D01*
X12728Y46128D01*
X12096Y46390D01*
X11417Y46479D01*
D02*
G37*
G36*
X113976Y42398D02*
X113270Y42257D01*
X112671Y41857D01*
X112539Y41660D01*
X112132D01*
X111533Y42060D01*
X110827Y42201D01*
X110120Y42060D01*
X109521Y41660D01*
X109121Y41061D01*
X108980Y40354D01*
X109121Y39648D01*
X109521Y39049D01*
X109783Y38874D01*
Y16732D01*
X109783Y16732D01*
X109862Y16333D01*
X110089Y15994D01*
X111417Y14666D01*
Y13918D01*
X111268Y13898D01*
X110158Y13438D01*
X109204Y12706D01*
X108471Y11752D01*
X108011Y10641D01*
X107854Y9449D01*
X108011Y8257D01*
X108471Y7146D01*
X109204Y6192D01*
X110158Y5460D01*
X111268Y4999D01*
X112461Y4843D01*
X113653Y4999D01*
X114764Y5460D01*
X115718Y6192D01*
X116450Y7146D01*
X116910Y8257D01*
X117067Y9449D01*
X116910Y10641D01*
X116450Y11752D01*
X115718Y12706D01*
X114764Y13438D01*
X113653Y13898D01*
X113504Y13918D01*
Y15098D01*
X113504Y15098D01*
X113425Y15498D01*
X113199Y15836D01*
X113199Y15836D01*
X111870Y17165D01*
Y38874D01*
X112132Y39049D01*
X112700Y39068D01*
X112933Y38854D01*
Y17933D01*
X112933Y17933D01*
X113012Y17534D01*
X113238Y17195D01*
X118563Y11871D01*
X118471Y11752D01*
X118011Y10641D01*
X117854Y9449D01*
X118011Y8257D01*
X118471Y7146D01*
X119203Y6192D01*
X120158Y5460D01*
X121268Y4999D01*
X122461Y4843D01*
X123653Y4999D01*
X124764Y5460D01*
X125718Y6192D01*
X126450Y7146D01*
X126910Y8257D01*
X127067Y9449D01*
X126910Y10641D01*
X126450Y11752D01*
X125718Y12706D01*
X124764Y13438D01*
X123653Y13898D01*
X122461Y14055D01*
X121268Y13898D01*
X120158Y13438D01*
X120039Y13347D01*
X115020Y18365D01*
Y39070D01*
X115282Y39246D01*
X115682Y39845D01*
X115823Y40551D01*
X115682Y41258D01*
X115282Y41857D01*
X114683Y42257D01*
X113976Y42398D01*
D02*
G37*
G36*
X6024Y23465D02*
X3689D01*
X3732Y23139D01*
X4010Y22468D01*
X4452Y21893D01*
X5028Y21451D01*
X5698Y21173D01*
X6024Y21130D01*
Y23465D01*
D02*
G37*
G36*
X42854Y14162D02*
Y9843D01*
X47174D01*
X47063Y10682D01*
X46587Y11831D01*
X45830Y12818D01*
X44843Y13576D01*
X43694Y14052D01*
X42854Y14162D01*
D02*
G37*
G36*
X32067D02*
X31227Y14052D01*
X30078Y13576D01*
X29091Y12818D01*
X28334Y11831D01*
X27858Y10682D01*
X27747Y9843D01*
X32067D01*
Y14162D01*
D02*
G37*
G36*
X102461Y41118D02*
X101754Y40978D01*
X101155Y40577D01*
X100755Y39978D01*
X100614Y39272D01*
X100755Y38565D01*
X101155Y37966D01*
X101417Y37791D01*
Y13918D01*
X101268Y13898D01*
X100157Y13438D01*
X99203Y12706D01*
X98471Y11752D01*
X98011Y10641D01*
X97854Y9449D01*
X98011Y8257D01*
X98471Y7146D01*
X99203Y6192D01*
X100157Y5460D01*
X101268Y4999D01*
X102461Y4843D01*
X103653Y4999D01*
X104764Y5460D01*
X105718Y6192D01*
X106450Y7146D01*
X106910Y8257D01*
X107067Y9449D01*
X106910Y10641D01*
X106450Y11752D01*
X105718Y12706D01*
X104764Y13438D01*
X103653Y13898D01*
X103504Y13918D01*
Y37791D01*
X103766Y37966D01*
X104167Y38565D01*
X104307Y39272D01*
X104167Y39978D01*
X103766Y40577D01*
X103167Y40978D01*
X102461Y41118D01*
D02*
G37*
G36*
X93307Y41610D02*
X92601Y41470D01*
X92001Y41069D01*
X91601Y40470D01*
X91461Y39764D01*
X91601Y39057D01*
X92001Y38458D01*
X92263Y38283D01*
Y14029D01*
X91268Y13898D01*
X90158Y13438D01*
X89204Y12706D01*
X88471Y11752D01*
X88011Y10641D01*
X87854Y9449D01*
X88011Y8257D01*
X88471Y7146D01*
X89204Y6192D01*
X90158Y5460D01*
X91268Y4999D01*
X92461Y4843D01*
X93653Y4999D01*
X94764Y5460D01*
X95718Y6192D01*
X96450Y7146D01*
X96910Y8257D01*
X97067Y9449D01*
X96910Y10641D01*
X96450Y11752D01*
X95718Y12706D01*
X94764Y13438D01*
X94351Y13609D01*
Y38283D01*
X94613Y38458D01*
X95013Y39057D01*
X95154Y39764D01*
X95013Y40470D01*
X94613Y41069D01*
X94014Y41470D01*
X93307Y41610D01*
D02*
G37*
G36*
X82461Y14055D02*
X81268Y13898D01*
X80158Y13438D01*
X79203Y12706D01*
X78471Y11752D01*
X78011Y10641D01*
X77854Y9449D01*
X78011Y8257D01*
X78471Y7146D01*
X79203Y6192D01*
X80158Y5460D01*
X81268Y4999D01*
X82461Y4843D01*
X83653Y4999D01*
X84764Y5460D01*
X85718Y6192D01*
X86450Y7146D01*
X86910Y8257D01*
X87067Y9449D01*
X86910Y10641D01*
X86450Y11752D01*
X85718Y12706D01*
X84764Y13438D01*
X83653Y13898D01*
X82461Y14055D01*
D02*
G37*
G36*
X72461D02*
X71268Y13898D01*
X70157Y13438D01*
X69204Y12706D01*
X68471Y11752D01*
X68011Y10641D01*
X67854Y9449D01*
X68011Y8257D01*
X68471Y7146D01*
X69204Y6192D01*
X70157Y5460D01*
X71268Y4999D01*
X72461Y4843D01*
X73653Y4999D01*
X74764Y5460D01*
X75718Y6192D01*
X76450Y7146D01*
X76910Y8257D01*
X77067Y9449D01*
X76910Y10641D01*
X76450Y11752D01*
X75718Y12706D01*
X74764Y13438D01*
X73653Y13898D01*
X72461Y14055D01*
D02*
G37*
G36*
X62461D02*
X61268Y13898D01*
X60158Y13438D01*
X59203Y12706D01*
X58471Y11752D01*
X58011Y10641D01*
X57854Y9449D01*
X58011Y8257D01*
X58471Y7146D01*
X59203Y6192D01*
X60158Y5460D01*
X61268Y4999D01*
X62461Y4843D01*
X63653Y4999D01*
X64764Y5460D01*
X65718Y6192D01*
X66450Y7146D01*
X66910Y8257D01*
X67067Y9449D01*
X66910Y10641D01*
X66450Y11752D01*
X65718Y12706D01*
X64764Y13438D01*
X63653Y13898D01*
X62461Y14055D01*
D02*
G37*
G36*
X52461D02*
X51268Y13898D01*
X50157Y13438D01*
X49204Y12706D01*
X48471Y11752D01*
X48011Y10641D01*
X47854Y9449D01*
X48011Y8257D01*
X48471Y7146D01*
X49204Y6192D01*
X50157Y5460D01*
X51268Y4999D01*
X52461Y4843D01*
X53653Y4999D01*
X54764Y5460D01*
X55718Y6192D01*
X56450Y7146D01*
X56910Y8257D01*
X57067Y9449D01*
X56910Y10641D01*
X56450Y11752D01*
X55718Y12706D01*
X54764Y13438D01*
X53653Y13898D01*
X52461Y14055D01*
D02*
G37*
G36*
X47174Y9055D02*
X42854D01*
Y4735D01*
X43694Y4846D01*
X44843Y5322D01*
X45830Y6079D01*
X46587Y7066D01*
X47063Y8215D01*
X47174Y9055D01*
D02*
G37*
G36*
X32854Y14162D02*
Y9449D01*
Y4735D01*
X33694Y4846D01*
X34843Y5322D01*
X35830Y6079D01*
X36587Y7066D01*
X37063Y8215D01*
X37179Y9093D01*
X37209Y9317D01*
X37713D01*
X37742Y9093D01*
X37858Y8215D01*
X38334Y7066D01*
X39091Y6079D01*
X40078Y5322D01*
X41227Y4846D01*
X42067Y4735D01*
Y9449D01*
Y14162D01*
X41227Y14052D01*
X40078Y13576D01*
X39091Y12818D01*
X38334Y11831D01*
X37858Y10682D01*
X37742Y9805D01*
X37713Y9580D01*
X37209D01*
X37179Y9805D01*
X37063Y10682D01*
X36587Y11831D01*
X35830Y12818D01*
X34843Y13576D01*
X33694Y14052D01*
X32854Y14162D01*
D02*
G37*
G36*
X32067Y9055D02*
X27747D01*
X27858Y8215D01*
X28334Y7066D01*
X29091Y6079D01*
X30078Y5322D01*
X31227Y4846D01*
X32067Y4735D01*
Y9055D01*
D02*
G37*
G36*
X147638Y17399D02*
X146164Y17253D01*
X144746Y16823D01*
X143440Y16125D01*
X142295Y15186D01*
X141355Y14040D01*
X140657Y12734D01*
X140227Y11317D01*
X140082Y9843D01*
X140227Y8368D01*
X140657Y6951D01*
X141355Y5645D01*
X142295Y4500D01*
X143440Y3560D01*
X144746Y2862D01*
X146164Y2432D01*
X147638Y2286D01*
X149112Y2432D01*
X150529Y2862D01*
X151836Y3560D01*
X152981Y4500D01*
X153920Y5645D01*
X154619Y6951D01*
X155049Y8368D01*
X155194Y9843D01*
X155049Y11317D01*
X154619Y12734D01*
X153920Y14040D01*
X152981Y15186D01*
X151836Y16125D01*
X150529Y16823D01*
X149112Y17253D01*
X147638Y17399D01*
D02*
G37*
G36*
X9843D02*
X8368Y17253D01*
X6951Y16823D01*
X5645Y16125D01*
X4500Y15186D01*
X3560Y14040D01*
X2862Y12734D01*
X2432Y11317D01*
X2286Y9843D01*
X2432Y8368D01*
X2862Y6951D01*
X3560Y5645D01*
X4500Y4500D01*
X5645Y3560D01*
X6951Y2862D01*
X8368Y2432D01*
X9843Y2286D01*
X11317Y2432D01*
X12734Y2862D01*
X14040Y3560D01*
X15186Y4500D01*
X16125Y5645D01*
X16823Y6951D01*
X17253Y8368D01*
X17399Y9843D01*
X17253Y11317D01*
X16823Y12734D01*
X16125Y14040D01*
X15186Y15186D01*
X14040Y16125D01*
X12734Y16823D01*
X11317Y17253D01*
X9843Y17399D01*
D02*
G37*
%LPD*%
D12*
X121850Y100197D02*
X125984Y104331D01*
X128150D01*
X123425Y98425D02*
X126772D01*
X122047Y97047D02*
X123425Y98425D01*
X132480Y95866D02*
X136653Y100039D01*
X142717Y122835D02*
X147638D01*
X136614Y116732D02*
X142717Y122835D01*
X136614Y115160D02*
Y116732D01*
X138583Y109252D02*
X142165Y112835D01*
X138583Y95472D02*
Y109252D01*
X142165Y112835D02*
X147638D01*
X110827Y16732D02*
Y40354D01*
Y16732D02*
X112461Y15098D01*
X108268Y67520D02*
X112953Y62835D01*
X147638D01*
X108153Y64453D02*
X108153D01*
X119772Y52835D01*
X147638D01*
X136653Y100039D02*
Y115120D01*
X94882Y52165D02*
X97835Y55118D01*
X75197Y50984D02*
X76968Y49213D01*
X82874Y52165D02*
X94882D01*
X75197Y50984D02*
Y63386D01*
X72835Y65748D02*
X75197Y63386D01*
X48819Y65748D02*
X72835D01*
X30709Y63779D02*
X31299Y64370D01*
X35827D01*
X52362Y49213D02*
Y54921D01*
X52362Y54921D02*
X52362Y54921D01*
X58465Y61024D02*
X71850D01*
X52362Y54921D02*
X58465Y61024D01*
X94685Y65748D02*
X97441Y62992D01*
X87008Y65748D02*
X94685D01*
X77559Y111024D02*
X81890Y106693D01*
X82087D01*
X71260Y111024D02*
X77559D01*
X131693Y92126D02*
X135236D01*
X131693Y88976D02*
X134645D01*
X133504Y32835D02*
X147638D01*
X108071Y58268D02*
X133504Y32835D01*
X108071Y58268D02*
X108071D01*
X113976Y17933D02*
Y40551D01*
X108071Y61417D02*
X126772Y42717D01*
X147520D02*
X147638Y42835D01*
X126772Y42717D02*
X147520D01*
X138976Y72835D02*
X147638D01*
X135057Y76754D02*
X138976Y72835D01*
X131675Y76754D02*
X135057D01*
X134606Y82835D02*
X147638D01*
X131693Y79921D02*
X134606Y82835D01*
X131693Y85827D02*
X134645D01*
X141654Y92835D02*
X147638D01*
X134645Y85827D02*
X141654Y92835D01*
X141811Y102835D02*
X147638D01*
X140551Y101575D02*
X141811Y102835D01*
X140551Y94882D02*
Y101575D01*
X134645Y88976D02*
X140551Y94882D01*
X135236Y92126D02*
X138583Y95472D01*
X136614Y115160D02*
X136653Y115120D01*
X82284Y9626D02*
X82461Y9449D01*
X92461D02*
X93307Y10295D01*
Y39764D01*
X102461Y9449D02*
Y39272D01*
X112461Y9449D02*
Y15098D01*
X113976Y17933D02*
X122461Y9449D01*
X25197Y72638D02*
Y77953D01*
D39*
D03*
Y83858D02*
D03*
X128150Y104331D02*
D03*
Y98425D02*
D03*
X71260Y111024D02*
D03*
Y105118D02*
D03*
D48*
X67520Y139567D02*
X103347D01*
X67520Y114764D02*
Y139567D01*
X103347D02*
X106102Y136811D01*
X25197Y84055D02*
X25394Y83858D01*
X128189Y98465D02*
X131142D01*
X133071Y100394D01*
X128150Y98425D02*
X128189Y98465D01*
X133071Y100394D02*
Y116142D01*
X116732Y132480D02*
X133071Y116142D01*
X25197Y84055D02*
Y114370D01*
X50394Y139567D02*
X67520D01*
Y114764D02*
X71260Y111024D01*
X106102Y132480D02*
X116732D01*
X106102D02*
Y136811D01*
X25197Y114370D02*
X50394Y139567D01*
D50*
X7874Y62667D02*
D03*
Y90226D02*
D03*
D51*
X18504Y66604D02*
D03*
Y86289D02*
D03*
D52*
X147638Y122835D02*
D03*
Y112835D02*
D03*
Y102835D02*
D03*
Y92835D02*
D03*
Y82835D02*
D03*
Y72835D02*
D03*
Y62835D02*
D03*
Y52835D02*
D03*
Y42835D02*
D03*
Y32835D02*
D03*
X32461Y148031D02*
D03*
X42461D02*
D03*
X52461D02*
D03*
X62461D02*
D03*
X72461D02*
D03*
X82461D02*
D03*
X92461D02*
D03*
X102461D02*
D03*
X112461D02*
D03*
X122461D02*
D03*
X75394Y132480D02*
D03*
Y82087D02*
D03*
X125591D02*
D03*
X125787Y132480D02*
D03*
X122461Y9449D02*
D03*
X112461D02*
D03*
X102461D02*
D03*
X92461D02*
D03*
X82461D02*
D03*
X72461D02*
D03*
X62461D02*
D03*
X52461D02*
D03*
X42461D02*
D03*
X32461D02*
D03*
D53*
X9843Y9843D02*
D03*
X147638D02*
D03*
Y147638D02*
D03*
X9843D02*
D03*
D54*
X11417Y23858D02*
D03*
X6417D02*
D03*
X11417Y28858D02*
D03*
X6417D02*
D03*
X11417Y33858D02*
D03*
X6417D02*
D03*
X11417Y38858D02*
D03*
X6417D02*
D03*
Y43858D02*
D03*
X11417D02*
D03*
D55*
X106102Y132480D02*
D03*
X122047Y97047D02*
D03*
X121850Y100197D02*
D03*
X132480Y95866D02*
D03*
X93898Y100787D02*
D03*
Y105118D02*
D03*
Y109449D02*
D03*
Y113779D02*
D03*
X98228Y100787D02*
D03*
Y105118D02*
D03*
Y109449D02*
D03*
Y113779D02*
D03*
X102559Y100787D02*
D03*
Y105118D02*
D03*
Y109449D02*
D03*
Y113779D02*
D03*
X106890Y100787D02*
D03*
Y105118D02*
D03*
Y109449D02*
D03*
Y113779D02*
D03*
X21063Y7677D02*
D03*
X24213D02*
D03*
Y10827D02*
D03*
X21063D02*
D03*
X50197Y35433D02*
D03*
Y38583D02*
D03*
X81890Y47244D02*
D03*
X17323Y16142D02*
D03*
X24016Y68307D02*
D03*
Y65158D02*
D03*
Y62008D02*
D03*
Y59055D02*
D03*
Y55905D02*
D03*
X27165D02*
D03*
Y59055D02*
D03*
Y62008D02*
D03*
Y65158D02*
D03*
Y68307D02*
D03*
X10630Y114173D02*
D03*
X10827Y137008D02*
D03*
X24016Y137598D02*
D03*
X96063Y17520D02*
D03*
X86024D02*
D03*
X90748D02*
D03*
X100000D02*
D03*
X107087D02*
D03*
X118898Y22047D02*
D03*
X53543Y35433D02*
D03*
X56693D02*
D03*
Y38583D02*
D03*
X53543D02*
D03*
Y29134D02*
D03*
X56693D02*
D03*
Y32283D02*
D03*
X53543D02*
D03*
Y25984D02*
D03*
X56693D02*
D03*
Y22835D02*
D03*
X53543D02*
D03*
X72638Y23622D02*
D03*
Y29724D02*
D03*
Y35433D02*
D03*
X71260Y100787D02*
D03*
X110827Y40354D02*
D03*
X108268Y67520D02*
D03*
X108153Y64453D02*
D03*
X97835Y55118D02*
D03*
X76968Y49213D02*
D03*
X82874Y52165D02*
D03*
X48819Y65748D02*
D03*
X30709Y63779D02*
D03*
X35827Y64370D02*
D03*
X52362Y49213D02*
D03*
X71850Y61024D02*
D03*
X25197Y84055D02*
D03*
X66535Y56367D02*
D03*
Y52037D02*
D03*
X62205Y56367D02*
D03*
Y52037D02*
D03*
X97441Y62992D02*
D03*
X87008Y65748D02*
D03*
X82087Y106693D02*
D03*
X131693Y92126D02*
D03*
X131693Y88976D02*
D03*
X113976Y40551D02*
D03*
X108071Y58268D02*
D03*
X108071Y61417D02*
D03*
X131675Y76754D02*
D03*
X131693Y79921D02*
D03*
X131693Y85827D02*
D03*
X93307Y39764D02*
D03*
X102461Y39272D02*
D03*
X25197Y72638D02*
D03*
M02*
