G04*
G04 #@! TF.GenerationSoftware,Altium Limited,Altium Designer,19.1.6 (110)*
G04*
G04 Layer_Color=65535*
%FSLAX25Y25*%
%MOIN*%
G70*
G01*
G75*
%ADD10C,0.00984*%
%ADD11C,0.00602*%
%ADD12C,0.00787*%
%ADD13C,0.00630*%
G36*
X57041Y121045D02*
X57169D01*
X57460Y121008D01*
X57788Y120972D01*
X58171Y120899D01*
X58553Y120790D01*
X58954Y120662D01*
X58973D01*
X59009Y120644D01*
X59064Y120626D01*
X59136Y120589D01*
X59319Y120480D01*
X59556Y120352D01*
X59829Y120152D01*
X60120Y119933D01*
X60394Y119660D01*
X60667Y119332D01*
Y119314D01*
X60703Y119296D01*
X60740Y119241D01*
X60776Y119168D01*
X60831Y119077D01*
X60886Y118949D01*
X61013Y118676D01*
X61141Y118348D01*
X61250Y117947D01*
X61323Y117492D01*
X61359Y116982D01*
Y116818D01*
X61341Y116636D01*
X61323Y116417D01*
X61268Y116144D01*
X61214Y115852D01*
X61123Y115560D01*
X60995Y115269D01*
Y115251D01*
X60977Y115233D01*
X60922Y115141D01*
X60849Y114996D01*
X60722Y114813D01*
X60558Y114631D01*
X60357Y114431D01*
X60120Y114231D01*
X59847Y114048D01*
X59811Y114030D01*
X59701Y113975D01*
X59537Y113902D01*
X59301Y113830D01*
X59027Y113757D01*
X58699Y113684D01*
X58335Y113629D01*
X57934Y113611D01*
X57898D01*
X57806D01*
X57697D01*
X57551Y113629D01*
Y120389D01*
X57533D01*
X57460D01*
X57351Y120407D01*
X57242D01*
X56968Y120425D01*
X56823D01*
X56713D01*
X56677D01*
X56568D01*
X56422Y120407D01*
X56203Y120389D01*
X55966Y120371D01*
X55693Y120316D01*
X55420Y120261D01*
X55128Y120188D01*
X55092Y120170D01*
X55001Y120152D01*
X54873Y120079D01*
X54691Y120006D01*
X54490Y119915D01*
X54290Y119788D01*
X54071Y119642D01*
X53871Y119478D01*
X53853Y119460D01*
X53780Y119387D01*
X53689Y119277D01*
X53579Y119150D01*
X53452Y118968D01*
X53342Y118786D01*
X53215Y118549D01*
X53106Y118312D01*
X53087Y118275D01*
X53069Y118202D01*
X53033Y118057D01*
X52996Y117875D01*
X52942Y117674D01*
X52905Y117419D01*
X52887Y117164D01*
X52869Y116891D01*
Y116781D01*
X52887Y116690D01*
Y116581D01*
X52905Y116453D01*
X52924Y116308D01*
X52942Y116144D01*
X52996Y115761D01*
X53106Y115324D01*
X53233Y114850D01*
X53415Y114340D01*
X53397D01*
X53361Y114358D01*
X53288D01*
X53215Y114376D01*
X52996Y114413D01*
X52759Y114449D01*
Y114486D01*
X52723Y114577D01*
X52687Y114704D01*
X52650Y114868D01*
X52614Y115069D01*
X52559Y115287D01*
X52486Y115725D01*
Y115743D01*
X52468Y115816D01*
X52450Y115925D01*
Y116071D01*
X52431Y116253D01*
X52413Y116453D01*
X52395Y116872D01*
Y117036D01*
X52413Y117237D01*
X52431Y117474D01*
X52468Y117765D01*
X52504Y118075D01*
X52577Y118385D01*
X52668Y118694D01*
X52687Y118731D01*
X52723Y118822D01*
X52796Y118968D01*
X52887Y119150D01*
X53015Y119369D01*
X53160Y119587D01*
X53361Y119824D01*
X53579Y120043D01*
X53616Y120061D01*
X53689Y120134D01*
X53834Y120225D01*
X53998Y120352D01*
X54217Y120480D01*
X54472Y120607D01*
X54727Y120717D01*
X55019Y120826D01*
X55037D01*
X55055Y120844D01*
X55164Y120863D01*
X55329Y120899D01*
X55529Y120935D01*
X55784Y120990D01*
X56076Y121027D01*
X56403Y121045D01*
X56731Y121063D01*
X56750D01*
X56786D01*
X56841D01*
X56932D01*
X57041Y121045D01*
D02*
G37*
G36*
X57770Y111771D02*
X60211Y111680D01*
X60248D01*
X60321D01*
X60430D01*
X60576D01*
X60904D01*
X61050D01*
X61177D01*
Y111552D01*
X61159Y111425D01*
Y111151D01*
X61177Y111005D01*
X59247Y111114D01*
X59246Y111115D01*
X59228D01*
X59247Y111114D01*
X59301Y111078D01*
X59373Y111042D01*
X59446Y111005D01*
X59647Y110915D01*
X59738Y110860D01*
X59829Y110805D01*
X59847D01*
X59865Y110787D01*
X59975Y110714D01*
X60120Y110605D01*
X60284Y110477D01*
X60303Y110459D01*
X60321Y110441D01*
X60430Y110331D01*
X60576Y110167D01*
X60722Y109967D01*
X60740Y109949D01*
X60758Y109912D01*
X60795Y109858D01*
X60849Y109767D01*
X60904Y109657D01*
X60958Y109548D01*
X61068Y109256D01*
Y109238D01*
X61086Y109184D01*
X61123Y109092D01*
X61159Y109001D01*
X61177Y108874D01*
X61214Y108728D01*
X61286Y108418D01*
Y108400D01*
X61305Y108345D01*
Y108254D01*
X61323Y108145D01*
X61341Y108018D01*
Y107872D01*
X61359Y107544D01*
Y107289D01*
X61341Y107106D01*
X61323Y106888D01*
X61286Y106651D01*
X61195Y106159D01*
Y106123D01*
X61159Y106050D01*
X61123Y105922D01*
X61068Y105758D01*
X60995Y105594D01*
X60886Y105412D01*
X60776Y105212D01*
X60631Y105048D01*
X60612Y105029D01*
X60558Y104975D01*
X60485Y104902D01*
X60357Y104811D01*
X60230Y104701D01*
X60066Y104610D01*
X59902Y104519D01*
X59701Y104446D01*
X59683D01*
X59610Y104410D01*
X59501Y104392D01*
X59373Y104355D01*
X59209Y104319D01*
X59027Y104301D01*
X58608Y104264D01*
X58590D01*
X58553D01*
X58499D01*
X58408D01*
X58298D01*
X58171Y104282D01*
X58007D01*
X57825Y104301D01*
X53944Y104483D01*
X52559Y104501D01*
Y105157D01*
X52577D01*
X52614D01*
X52668D01*
X52741Y105139D01*
X52942D01*
X53215Y105121D01*
X53525Y105102D01*
X53853Y105066D01*
X54217Y105048D01*
X54581Y105029D01*
X56768Y104902D01*
X56786D01*
X56823D01*
X56877D01*
X56968Y104884D01*
X57187D01*
X57442Y104865D01*
X57734D01*
X58025Y104847D01*
X58298D01*
X58517D01*
X58535D01*
X58608D01*
X58717D01*
X58863Y104865D01*
X59009Y104884D01*
X59173Y104920D01*
X59519Y105011D01*
X59537D01*
X59592Y105048D01*
X59683Y105084D01*
X59792Y105139D01*
X59902Y105212D01*
X60029Y105303D01*
X60157Y105412D01*
X60266Y105558D01*
X60284Y105576D01*
X60321Y105631D01*
X60357Y105722D01*
X60430Y105831D01*
X60503Y105959D01*
X60558Y106123D01*
X60631Y106305D01*
X60685Y106505D01*
Y106523D01*
X60703Y106596D01*
X60740Y106706D01*
X60758Y106851D01*
X60795Y107015D01*
X60813Y107216D01*
X60831Y107635D01*
Y107762D01*
X60813Y107926D01*
X60795Y108109D01*
X60776Y108327D01*
X60740Y108564D01*
X60667Y108819D01*
X60594Y109056D01*
Y109074D01*
X60558Y109147D01*
X60503Y109275D01*
X60448Y109402D01*
X60357Y109566D01*
X60248Y109748D01*
X60120Y109931D01*
X59975Y110095D01*
X59956Y110113D01*
X59902Y110167D01*
X59811Y110240D01*
X59683Y110350D01*
X59537Y110459D01*
X59355Y110587D01*
X59155Y110714D01*
X58936Y110823D01*
X58918D01*
X58845Y110860D01*
X58754Y110896D01*
X58608Y110951D01*
X58426Y111005D01*
X58207Y111060D01*
X57934Y111097D01*
X57642Y111151D01*
X57606D01*
X57515Y111170D01*
X57424D01*
X57333Y111188D01*
X57223D01*
X57078Y111206D01*
X56932Y111224D01*
X56750D01*
X56568Y111242D01*
X56349Y111261D01*
X56112Y111279D01*
X55857D01*
X55584Y111297D01*
X55292Y111315D01*
X55274D01*
X55219D01*
X55128D01*
X55019D01*
X54891Y111334D01*
X54727D01*
X54545D01*
X54345D01*
X53907Y111352D01*
X53452D01*
X52996Y111370D01*
X52559D01*
Y112044D01*
X57770Y111771D01*
D02*
G37*
G36*
X56986Y102296D02*
X57114Y102278D01*
X57460Y102242D01*
X57843Y102187D01*
X58262Y102096D01*
X58699Y101968D01*
X59136Y101804D01*
X59155D01*
X59191Y101786D01*
X59246Y101750D01*
X59319Y101713D01*
X59519Y101586D01*
X59774Y101422D01*
X60048Y101203D01*
X60321Y100948D01*
X60594Y100638D01*
X60813Y100292D01*
Y100274D01*
X60831Y100238D01*
X60867Y100183D01*
X60904Y100110D01*
X60940Y100019D01*
X60995Y99910D01*
X61086Y99636D01*
X61195Y99308D01*
X61268Y98926D01*
X61341Y98525D01*
X61359Y98088D01*
Y97960D01*
X61341Y97796D01*
X61323Y97596D01*
X61305Y97377D01*
X61268Y97104D01*
X61195Y96830D01*
X61123Y96557D01*
X61104Y96521D01*
X61086Y96430D01*
X61031Y96284D01*
X60940Y96120D01*
X60849Y95901D01*
X60722Y95683D01*
X60558Y95464D01*
X60375Y95245D01*
X60357Y95227D01*
X60284Y95154D01*
X60157Y95045D01*
X60011Y94917D01*
X59792Y94790D01*
X59556Y94644D01*
X59282Y94516D01*
X58973Y94389D01*
X58954D01*
X58936Y94371D01*
X58827Y94334D01*
X58644Y94298D01*
X58426Y94225D01*
X58153Y94170D01*
X57843Y94134D01*
X57515Y94097D01*
X57151Y94079D01*
X57132D01*
X57096D01*
X57041D01*
X56968D01*
X56768Y94097D01*
X56513Y94116D01*
X56203Y94152D01*
X55875Y94225D01*
X55511Y94298D01*
X55146Y94407D01*
X55128D01*
X55110Y94425D01*
X55055Y94444D01*
X54982Y94462D01*
X54818Y94535D01*
X54600Y94626D01*
X54345Y94753D01*
X54071Y94917D01*
X53816Y95100D01*
X53561Y95300D01*
X53525Y95318D01*
X53452Y95409D01*
X53342Y95519D01*
X53215Y95683D01*
X53051Y95883D01*
X52905Y96120D01*
X52759Y96375D01*
X52650Y96666D01*
X52632Y96703D01*
X52614Y96794D01*
X52577Y96958D01*
X52523Y97158D01*
X52468Y97413D01*
X52431Y97687D01*
X52413Y97996D01*
X52395Y98324D01*
Y98543D01*
X52413Y98707D01*
X52431Y98889D01*
X52450Y99090D01*
X52541Y99527D01*
Y99545D01*
X52559Y99618D01*
X52596Y99746D01*
X52650Y99891D01*
X52705Y100055D01*
X52796Y100238D01*
X52887Y100438D01*
X52996Y100638D01*
X53015Y100657D01*
X53051Y100730D01*
X53124Y100821D01*
X53233Y100948D01*
X53342Y101076D01*
X53488Y101240D01*
X53671Y101404D01*
X53853Y101549D01*
X53871Y101568D01*
X53944Y101604D01*
X54071Y101677D01*
X54217Y101768D01*
X54399Y101859D01*
X54618Y101950D01*
X54855Y102041D01*
X55110Y102132D01*
X55146D01*
X55237Y102169D01*
X55383Y102187D01*
X55565Y102224D01*
X55802Y102260D01*
X56057Y102278D01*
X56331Y102315D01*
X56622D01*
X56640D01*
X56677D01*
X56750D01*
X56859D01*
X56986Y102296D01*
D02*
G37*
G36*
X57770Y92002D02*
X60211Y91911D01*
X60248D01*
X60321D01*
X60430D01*
X60576D01*
X60904D01*
X61050D01*
X61177D01*
Y91783D01*
X61159Y91656D01*
Y91383D01*
X61177Y91237D01*
X59247Y91345D01*
X59246Y91346D01*
X59228D01*
X59247Y91345D01*
X59301Y91310D01*
X59373Y91273D01*
X59446Y91237D01*
X59647Y91146D01*
X59738Y91091D01*
X59829Y91036D01*
X59847D01*
X59865Y91018D01*
X59975Y90945D01*
X60120Y90836D01*
X60284Y90709D01*
X60303Y90690D01*
X60321Y90672D01*
X60430Y90563D01*
X60576Y90399D01*
X60722Y90198D01*
X60740Y90180D01*
X60758Y90144D01*
X60795Y90089D01*
X60849Y89998D01*
X60904Y89889D01*
X60958Y89779D01*
X61068Y89488D01*
Y89469D01*
X61086Y89415D01*
X61123Y89324D01*
X61159Y89233D01*
X61177Y89105D01*
X61214Y88959D01*
X61286Y88650D01*
Y88631D01*
X61305Y88577D01*
Y88486D01*
X61323Y88376D01*
X61341Y88249D01*
Y88103D01*
X61359Y87775D01*
Y87520D01*
X61341Y87338D01*
X61323Y87119D01*
X61286Y86882D01*
X61195Y86390D01*
Y86354D01*
X61159Y86281D01*
X61123Y86154D01*
X61068Y85989D01*
X60995Y85826D01*
X60886Y85643D01*
X60776Y85443D01*
X60631Y85279D01*
X60612Y85261D01*
X60558Y85206D01*
X60485Y85133D01*
X60357Y85042D01*
X60230Y84933D01*
X60066Y84842D01*
X59902Y84750D01*
X59701Y84678D01*
X59683D01*
X59610Y84641D01*
X59501Y84623D01*
X59373Y84587D01*
X59209Y84550D01*
X59027Y84532D01*
X58608Y84496D01*
X58590D01*
X58553D01*
X58499D01*
X58408D01*
X58298D01*
X58171Y84514D01*
X58007D01*
X57825Y84532D01*
X53944Y84714D01*
X52559Y84732D01*
Y85388D01*
X52577D01*
X52614D01*
X52668D01*
X52741Y85370D01*
X52942D01*
X53215Y85352D01*
X53525Y85334D01*
X53853Y85297D01*
X54217Y85279D01*
X54581Y85261D01*
X56768Y85133D01*
X56786D01*
X56823D01*
X56877D01*
X56968Y85115D01*
X57187D01*
X57442Y85097D01*
X57734D01*
X58025Y85079D01*
X58298D01*
X58517D01*
X58535D01*
X58608D01*
X58717D01*
X58863Y85097D01*
X59009Y85115D01*
X59173Y85151D01*
X59519Y85242D01*
X59537D01*
X59592Y85279D01*
X59683Y85315D01*
X59792Y85370D01*
X59902Y85443D01*
X60029Y85534D01*
X60157Y85643D01*
X60266Y85789D01*
X60284Y85807D01*
X60321Y85862D01*
X60357Y85953D01*
X60430Y86062D01*
X60503Y86190D01*
X60558Y86354D01*
X60631Y86536D01*
X60685Y86737D01*
Y86755D01*
X60703Y86828D01*
X60740Y86937D01*
X60758Y87083D01*
X60795Y87247D01*
X60813Y87447D01*
X60831Y87866D01*
Y87994D01*
X60813Y88158D01*
X60795Y88340D01*
X60776Y88559D01*
X60740Y88795D01*
X60667Y89051D01*
X60594Y89287D01*
Y89306D01*
X60558Y89378D01*
X60503Y89506D01*
X60448Y89634D01*
X60357Y89798D01*
X60248Y89980D01*
X60120Y90162D01*
X59975Y90326D01*
X59956Y90344D01*
X59902Y90399D01*
X59811Y90472D01*
X59683Y90581D01*
X59537Y90690D01*
X59355Y90818D01*
X59155Y90945D01*
X58936Y91055D01*
X58918D01*
X58845Y91091D01*
X58754Y91128D01*
X58608Y91182D01*
X58426Y91237D01*
X58207Y91291D01*
X57934Y91328D01*
X57642Y91383D01*
X57606D01*
X57515Y91401D01*
X57424D01*
X57333Y91419D01*
X57223D01*
X57078Y91437D01*
X56932Y91456D01*
X56750D01*
X56568Y91474D01*
X56349Y91492D01*
X56112Y91510D01*
X55857D01*
X55584Y91528D01*
X55292Y91547D01*
X55274D01*
X55219D01*
X55128D01*
X55019D01*
X54891Y91565D01*
X54727D01*
X54545D01*
X54345D01*
X53907Y91583D01*
X53452D01*
X52996Y91601D01*
X52559D01*
Y92275D01*
X57770Y92002D01*
D02*
G37*
G36*
X47470Y133435D02*
X47528Y133377D01*
X47674Y133290D01*
X47849Y133115D01*
X48112Y132911D01*
X48461Y132648D01*
X48870Y132327D01*
X49365Y131919D01*
X49949Y131482D01*
X50619Y130928D01*
X51407Y130315D01*
X52281Y129645D01*
X52748Y129265D01*
X53273Y128857D01*
X53798Y128449D01*
X54381Y128012D01*
X54993Y127545D01*
X55606Y127049D01*
X56276Y126524D01*
X56976Y126000D01*
X66074Y132094D01*
Y131890D01*
X66045Y131657D01*
Y130928D01*
X66074Y130694D01*
X63596Y129120D01*
X57938Y125241D01*
X64587Y119934D01*
X64645Y119905D01*
X64762Y119818D01*
X64937Y119672D01*
X65141Y119526D01*
X65199Y119468D01*
X65258Y119439D01*
X65374Y119351D01*
X65491Y119264D01*
X65666Y119147D01*
X65841Y119001D01*
X66074Y118855D01*
Y117485D01*
X58230Y123667D01*
X56976Y124600D01*
X56947D01*
X56889Y124542D01*
X56801Y124483D01*
X56685Y124396D01*
X56539Y124308D01*
X56335Y124192D01*
X55897Y123871D01*
X55314Y123492D01*
X54673Y123054D01*
X53944Y122559D01*
X53127Y122034D01*
X47441Y118156D01*
Y119555D01*
X47470D01*
X47499Y119584D01*
X47587Y119643D01*
X47703Y119701D01*
X47995Y119905D01*
X48374Y120138D01*
X48841Y120430D01*
X49365Y120780D01*
X49949Y121159D01*
X50532Y121567D01*
X50561D01*
X50619Y121626D01*
X50707Y121684D01*
X50853Y121771D01*
X51028Y121888D01*
X51261Y122063D01*
X51523Y122238D01*
X51844Y122442D01*
X52194Y122675D01*
X52602Y122967D01*
X53040Y123288D01*
X53535Y123609D01*
X54089Y123988D01*
X54702Y124425D01*
X55343Y124862D01*
X56043Y125358D01*
X52602Y128099D01*
X48695Y131132D01*
X48666Y131161D01*
X48607Y131190D01*
X48520Y131278D01*
X48374Y131365D01*
X48199Y131511D01*
X47966Y131686D01*
X47732Y131861D01*
X47441Y132065D01*
Y133465D01*
X47470Y133435D01*
D02*
G37*
G36*
X32794Y87762D02*
X32947Y87741D01*
X33090Y87708D01*
X33352Y87609D01*
X33570Y87500D01*
X33669Y87445D01*
X33745Y87391D01*
X33822Y87347D01*
X33887Y87303D01*
X33931Y87260D01*
X33964Y87227D01*
X33986Y87216D01*
X33997Y87205D01*
X34106Y87096D01*
X34194Y86987D01*
X34281Y86877D01*
X34347Y86779D01*
X34401Y86691D01*
X34434Y86626D01*
X34456Y86582D01*
X34467Y86571D01*
X34521Y86440D01*
X34576Y86309D01*
X34609Y86189D01*
X34642Y86068D01*
X34653Y85970D01*
X34663Y85893D01*
X34674Y85850D01*
Y85828D01*
X34685Y85686D01*
Y85544D01*
X34663Y85281D01*
X34609Y85041D01*
X34543Y84833D01*
X34467Y84658D01*
X34434Y84593D01*
X34401Y84527D01*
X34379Y84483D01*
X34357Y84451D01*
X34336Y84429D01*
Y84418D01*
X34161Y84199D01*
X33975Y84013D01*
X33789Y83860D01*
X33603Y83740D01*
X33439Y83653D01*
X33374Y83620D01*
X33308Y83587D01*
X33253Y83565D01*
X33221Y83554D01*
X33199Y83543D01*
X33188D01*
X33133Y83533D01*
X33090Y83522D01*
X33057Y83511D01*
X33046D01*
X33013Y83500D01*
X33002Y83489D01*
X32991D01*
X32980Y83478D01*
Y83456D01*
X32969Y83401D01*
X32958Y83336D01*
Y82254D01*
X32969Y82101D01*
Y81904D01*
X32980Y81849D01*
Y81817D01*
X33013Y81674D01*
X33057Y81543D01*
X33079Y81489D01*
X33101Y81445D01*
X33122Y81423D01*
Y81412D01*
X33188Y81314D01*
X33264Y81226D01*
X33330Y81150D01*
X33341Y81139D01*
X33352Y81128D01*
X33396Y81084D01*
X33472Y81019D01*
X33560Y80931D01*
X33658Y80833D01*
X33778Y80713D01*
X33909Y80592D01*
X34172Y80341D01*
X34434Y80101D01*
X34543Y79980D01*
X34653Y79882D01*
X34740Y79805D01*
X34806Y79740D01*
X34849Y79696D01*
X34860Y79685D01*
X35002Y79554D01*
X35133Y79434D01*
X35363Y79215D01*
X35560Y79029D01*
X35713Y78887D01*
X35822Y78778D01*
X35899Y78702D01*
X35953Y78658D01*
X35964Y78647D01*
X36073Y78538D01*
X36161Y78450D01*
X36226Y78374D01*
X36270Y78319D01*
X36314Y78275D01*
X36336Y78242D01*
X36347Y78221D01*
X36478Y78035D01*
X36565Y77871D01*
X36609Y77794D01*
X36631Y77740D01*
X36653Y77696D01*
Y77685D01*
X36729Y77466D01*
X36762Y77368D01*
X36784Y77281D01*
X36795Y77215D01*
X36806Y77160D01*
X36817Y77128D01*
Y77084D01*
X36828Y77029D01*
Y76887D01*
X36838Y76822D01*
Y76570D01*
X36849Y76428D01*
Y74745D01*
X37003Y74668D01*
X37068Y74636D01*
X37112Y74603D01*
X37145Y74592D01*
X37156Y74581D01*
X37210Y74537D01*
X37265Y74493D01*
X37308Y74450D01*
X37319Y74439D01*
X37429Y74319D01*
X37505Y74209D01*
X37538Y74177D01*
X37560Y74144D01*
X37571Y74122D01*
Y74111D01*
X37626Y73980D01*
X37669Y73860D01*
X37680Y73816D01*
X37691Y73772D01*
X37702Y73750D01*
Y73739D01*
X37713Y73597D01*
Y73466D01*
X37691Y73346D01*
X37669Y73237D01*
X37647Y73138D01*
X37615Y73073D01*
X37604Y73018D01*
X37593Y73007D01*
X37527Y72876D01*
X37462Y72767D01*
X37385Y72668D01*
X37308Y72592D01*
X37243Y72526D01*
X37188Y72471D01*
X37145Y72450D01*
X37134Y72439D01*
X37090Y72406D01*
X37046Y72373D01*
X37003Y72362D01*
X36992Y72351D01*
X36926Y72318D01*
X36882Y72297D01*
X36838Y72286D01*
X36828D01*
X36751Y72264D01*
X36696Y72253D01*
X36664Y72242D01*
X36653D01*
X36620D01*
X36587Y72231D01*
X36500D01*
X36434D01*
X36412D01*
X36401D01*
X36292D01*
X36215D01*
X36172Y72242D01*
X36161D01*
X36106Y72253D01*
X36062Y72264D01*
X36019Y72275D01*
X36008D01*
X35866Y72340D01*
X35745Y72406D01*
X35702Y72428D01*
X35669Y72450D01*
X35647Y72461D01*
X35636Y72471D01*
X35527Y72559D01*
X35429Y72646D01*
X35374Y72712D01*
X35363Y72734D01*
X35352Y72745D01*
X35287Y72854D01*
X35232Y72952D01*
X35199Y73051D01*
X35166Y73149D01*
X35144Y73226D01*
X35122Y73291D01*
X35112Y73335D01*
Y73346D01*
X35101Y73466D01*
Y73575D01*
X35112Y73685D01*
X35133Y73783D01*
X35155Y73870D01*
X35166Y73936D01*
X35188Y73980D01*
Y73991D01*
X35265Y74144D01*
X35341Y74275D01*
X35385Y74319D01*
X35407Y74362D01*
X35429Y74384D01*
X35440Y74395D01*
X35571Y74515D01*
X35691Y74603D01*
X35735Y74636D01*
X35778Y74647D01*
X35800Y74668D01*
X35811D01*
X35953Y74745D01*
Y77117D01*
X35899Y77270D01*
X35822Y77434D01*
X35789Y77510D01*
X35745Y77576D01*
X35702Y77619D01*
X35680Y77663D01*
X35658Y77685D01*
X35647Y77696D01*
X35603Y77740D01*
X35549Y77794D01*
X35472Y77860D01*
X35396Y77936D01*
X35210Y78122D01*
X35013Y78308D01*
X34827Y78494D01*
X34740Y78570D01*
X34663Y78647D01*
X34598Y78702D01*
X34554Y78745D01*
X34521Y78778D01*
X34510Y78789D01*
X34336Y78953D01*
X34172Y79117D01*
X34019Y79259D01*
X33887Y79379D01*
X33778Y79488D01*
X33702Y79565D01*
X33647Y79609D01*
X33625Y79631D01*
X33494Y79762D01*
X33385Y79860D01*
X33297Y79937D01*
X33242Y80002D01*
X33199Y80035D01*
X33177Y80057D01*
X33155Y80079D01*
X32958Y80265D01*
Y67039D01*
X33494D01*
X33647D01*
X33767D01*
X33811D01*
X33844D01*
X33855D01*
X33866D01*
X33920D01*
X33953D01*
X33997Y67028D01*
X34019D01*
X34008Y67006D01*
X33986Y66963D01*
X33942Y66897D01*
X33909Y66821D01*
X33866Y66755D01*
X33822Y66689D01*
X33800Y66646D01*
X33789Y66624D01*
X33614Y66318D01*
X33527Y66176D01*
X33450Y66034D01*
X33374Y65924D01*
X33319Y65826D01*
X33286Y65771D01*
X33275Y65750D01*
X33177Y65575D01*
X33079Y65411D01*
X32991Y65258D01*
X32926Y65127D01*
X32860Y65028D01*
X32816Y64941D01*
X32783Y64897D01*
X32773Y64875D01*
X32696Y64744D01*
X32641Y64635D01*
X32598Y64569D01*
X32565Y64514D01*
X32543Y64482D01*
Y64471D01*
X32532Y64460D01*
X32521Y64471D01*
X32499Y64492D01*
X32467Y64536D01*
X32434Y64591D01*
X32401Y64635D01*
X32379Y64678D01*
X32357Y64711D01*
X32346Y64722D01*
X32270Y64842D01*
X32182Y64984D01*
X32095Y65148D01*
X31997Y65312D01*
X31909Y65465D01*
X31833Y65586D01*
X31811Y65640D01*
X31789Y65673D01*
X31767Y65695D01*
Y65706D01*
X31658Y65892D01*
X31559Y66066D01*
X31472Y66220D01*
X31395Y66351D01*
X31341Y66460D01*
X31297Y66547D01*
X31264Y66591D01*
X31253Y66613D01*
X31177Y66744D01*
X31122Y66831D01*
X31089Y66908D01*
X31067Y66952D01*
X31046Y66985D01*
X31035Y66996D01*
Y67006D01*
X31046Y67028D01*
X31067Y67039D01*
X31089D01*
X31100D01*
X31144D01*
X31199D01*
X31275D01*
X31352D01*
X31428D01*
X31494D01*
X31538D01*
X31548D01*
X32084D01*
Y77007D01*
X32029Y76964D01*
X31975Y76920D01*
X31898Y76854D01*
X31811Y76767D01*
X31723Y76679D01*
X31636Y76603D01*
X31559Y76537D01*
X31516Y76494D01*
X31494Y76472D01*
X31177Y76166D01*
X31024Y76024D01*
X30882Y75893D01*
X30772Y75783D01*
X30674Y75696D01*
X30619Y75641D01*
X30608Y75619D01*
X30597D01*
X30423Y75455D01*
X30270Y75302D01*
X30117Y75160D01*
X29996Y75040D01*
X29887Y74942D01*
X29811Y74865D01*
X29767Y74821D01*
X29745Y74800D01*
X29614Y74679D01*
X29515Y74581D01*
X29450Y74515D01*
X29395Y74461D01*
X29373Y74428D01*
X29351Y74417D01*
X29340Y74406D01*
X29297Y74340D01*
X29264Y74275D01*
X29220Y74209D01*
X29209Y74198D01*
Y74187D01*
X29166Y74078D01*
X29133Y73991D01*
X29111Y73947D01*
Y73925D01*
X29100Y73892D01*
Y73838D01*
X29089Y73739D01*
X29078Y73696D01*
Y73084D01*
X29067Y72931D01*
Y71586D01*
X29953D01*
Y68963D01*
X27340D01*
Y71586D01*
X28204D01*
X28215Y73925D01*
X28258Y74111D01*
X28313Y74297D01*
X28346Y74384D01*
X28379Y74461D01*
X28400Y74515D01*
X28422Y74570D01*
X28444Y74603D01*
Y74614D01*
X28543Y74778D01*
X28597Y74854D01*
X28641Y74920D01*
X28685Y74974D01*
X28717Y75018D01*
X28728Y75040D01*
X28739Y75051D01*
X28772Y75084D01*
X28827Y75138D01*
X28892Y75215D01*
X28980Y75291D01*
X29056Y75379D01*
X29122Y75444D01*
X29166Y75488D01*
X29188Y75510D01*
X29351Y75663D01*
X29526Y75827D01*
X29690Y75980D01*
X29843Y76133D01*
X29985Y76264D01*
X30084Y76363D01*
X30128Y76395D01*
X30160Y76428D01*
X30171Y76439D01*
X30182Y76450D01*
X30412Y76669D01*
X30619Y76865D01*
X30805Y77040D01*
X30958Y77193D01*
X31100Y77324D01*
X31220Y77445D01*
X31330Y77543D01*
X31417Y77619D01*
X31483Y77696D01*
X31538Y77751D01*
X31581Y77794D01*
X31625Y77827D01*
X31658Y77860D01*
X31669Y77871D01*
X31734Y77936D01*
X31789Y77991D01*
X31865Y78089D01*
X31909Y78166D01*
X31920Y78177D01*
Y78188D01*
X31964Y78275D01*
X31997Y78374D01*
X32018Y78461D01*
X32040Y78549D01*
X32051Y78614D01*
X32062Y78669D01*
Y78800D01*
X32073Y78909D01*
Y79390D01*
X32084Y79587D01*
Y83478D01*
X32008Y83500D01*
X31800Y83565D01*
X31701Y83598D01*
X31614Y83631D01*
X31548Y83664D01*
X31494Y83697D01*
X31461Y83707D01*
X31450Y83718D01*
X31275Y83839D01*
X31199Y83904D01*
X31122Y83959D01*
X31067Y84003D01*
X31024Y84046D01*
X31002Y84068D01*
X30991Y84079D01*
X30882Y84188D01*
X30794Y84309D01*
X30707Y84418D01*
X30652Y84527D01*
X30597Y84615D01*
X30565Y84680D01*
X30543Y84724D01*
X30532Y84746D01*
X30477Y84877D01*
X30444Y85019D01*
X30412Y85150D01*
X30390Y85271D01*
X30368Y85369D01*
Y85456D01*
X30357Y85500D01*
Y85697D01*
X30368Y85861D01*
X30390Y86014D01*
X30412Y86145D01*
X30444Y86254D01*
X30466Y86342D01*
X30477Y86396D01*
X30488Y86418D01*
X30554Y86571D01*
X30641Y86702D01*
X30718Y86833D01*
X30805Y86943D01*
X30871Y87030D01*
X30936Y87096D01*
X30980Y87139D01*
X30991Y87150D01*
X31111Y87260D01*
X31231Y87358D01*
X31352Y87435D01*
X31483Y87511D01*
X31734Y87620D01*
X31964Y87697D01*
X32171Y87741D01*
X32259Y87762D01*
X32335Y87773D01*
X32390D01*
X32434Y87784D01*
X32467D01*
X32477D01*
X32641D01*
X32794Y87762D01*
D02*
G37*
%LPC*%
G36*
X58025Y120298D02*
X58007Y114249D01*
X58025D01*
X58098D01*
X58207D01*
X58335Y114267D01*
X58626Y114285D01*
X58772Y114303D01*
X58900Y114322D01*
X58918D01*
X58954Y114340D01*
X59027D01*
X59100Y114376D01*
X59319Y114431D01*
X59556Y114540D01*
X59574D01*
X59610Y114577D01*
X59665Y114613D01*
X59756Y114649D01*
X59938Y114777D01*
X60120Y114941D01*
X60139Y114959D01*
X60157Y114978D01*
X60266Y115087D01*
X60412Y115251D01*
X60539Y115470D01*
Y115488D01*
X60576Y115524D01*
X60594Y115579D01*
X60631Y115670D01*
X60722Y115870D01*
X60795Y116144D01*
Y116162D01*
X60813Y116198D01*
X60831Y116289D01*
X60849Y116380D01*
Y116490D01*
X60867Y116636D01*
X60886Y116927D01*
Y117091D01*
X60867Y117200D01*
Y117328D01*
X60849Y117474D01*
X60776Y117802D01*
Y117820D01*
X60758Y117875D01*
X60740Y117966D01*
X60703Y118057D01*
X60612Y118330D01*
X60485Y118603D01*
Y118622D01*
X60448Y118658D01*
X60412Y118731D01*
X60375Y118822D01*
X60230Y119022D01*
X60029Y119259D01*
X60011Y119277D01*
X59975Y119314D01*
X59920Y119369D01*
X59847Y119441D01*
X59665Y119605D01*
X59428Y119769D01*
X59410D01*
X59373Y119806D01*
X59319Y119842D01*
X59246Y119879D01*
X59045Y119988D01*
X58827Y120079D01*
X58808D01*
X58772Y120097D01*
X58699Y120116D01*
X58626Y120152D01*
X58499Y120188D01*
X58371Y120225D01*
X58207Y120261D01*
X58025Y120298D01*
D02*
G37*
G36*
X56640Y101677D02*
X56604D01*
X56495D01*
X56331Y101659D01*
X56130Y101640D01*
X55875Y101622D01*
X55620Y101586D01*
X55329Y101531D01*
X55037Y101458D01*
X55001Y101440D01*
X54909Y101404D01*
X54782Y101349D01*
X54600Y101276D01*
X54399Y101167D01*
X54199Y101039D01*
X53980Y100893D01*
X53780Y100711D01*
X53762Y100693D01*
X53689Y100620D01*
X53616Y100511D01*
X53506Y100365D01*
X53379Y100201D01*
X53270Y100019D01*
X53160Y99800D01*
X53069Y99582D01*
Y99545D01*
X53033Y99472D01*
X53015Y99363D01*
X52978Y99199D01*
X52942Y98999D01*
X52905Y98798D01*
X52887Y98561D01*
X52869Y98306D01*
Y98179D01*
X52887Y98033D01*
X52905Y97833D01*
X52924Y97614D01*
X52978Y97377D01*
X53033Y97140D01*
X53106Y96885D01*
X53124Y96849D01*
X53160Y96776D01*
X53215Y96648D01*
X53306Y96484D01*
X53415Y96302D01*
X53561Y96102D01*
X53725Y95901D01*
X53926Y95719D01*
X53944Y95701D01*
X54035Y95628D01*
X54162Y95537D01*
X54326Y95427D01*
X54527Y95318D01*
X54764Y95191D01*
X55037Y95063D01*
X55347Y94972D01*
X55365D01*
X55383Y94954D01*
X55493Y94936D01*
X55675Y94899D01*
X55893Y94844D01*
X56167Y94790D01*
X56476Y94753D01*
X56804Y94735D01*
X57151Y94717D01*
X57169D01*
X57187D01*
X57296D01*
X57460Y94735D01*
X57679Y94753D01*
X57934Y94771D01*
X58207Y94808D01*
X58499Y94881D01*
X58790Y94954D01*
X58808D01*
X58827Y94972D01*
X58918Y94990D01*
X59064Y95063D01*
X59246Y95136D01*
X59446Y95245D01*
X59647Y95373D01*
X59847Y95519D01*
X60029Y95701D01*
X60048Y95719D01*
X60102Y95792D01*
X60193Y95883D01*
X60284Y96029D01*
X60394Y96193D01*
X60503Y96393D01*
X60612Y96593D01*
X60685Y96830D01*
X60703Y96849D01*
X60722Y96940D01*
X60758Y97067D01*
X60795Y97213D01*
X60831Y97413D01*
X60849Y97632D01*
X60886Y97869D01*
Y98270D01*
X60867Y98470D01*
X60831Y98725D01*
X60758Y99017D01*
X60667Y99326D01*
X60539Y99673D01*
X60375Y100001D01*
Y100019D01*
X60357Y100037D01*
X60284Y100146D01*
X60175Y100292D01*
X60011Y100493D01*
X59792Y100693D01*
X59537Y100912D01*
X59228Y101112D01*
X58863Y101276D01*
X58845D01*
X58827Y101294D01*
X58772Y101312D01*
X58681Y101331D01*
X58590Y101367D01*
X58481Y101404D01*
X58207Y101477D01*
X57879Y101549D01*
X57497Y101622D01*
X57096Y101659D01*
X56640Y101677D01*
D02*
G37*
%LPD*%
D10*
X89075Y92323D02*
G03*
X89075Y92323I-492J0D01*
G01*
X72736Y65226D02*
G03*
X72736Y65226I-492J0D01*
G01*
D11*
X108976Y129646D02*
Y135315D01*
X97323Y129646D02*
X108976D01*
X97323D02*
Y135315D01*
X108976D01*
X84055Y60945D02*
X89724D01*
Y49291D02*
Y60945D01*
X84055Y49291D02*
X89724D01*
X84055D02*
Y60945D01*
X26299Y127047D02*
X31969D01*
X26299D02*
Y138701D01*
X31969D01*
Y127047D02*
Y138701D01*
X38110Y127835D02*
Y138701D01*
X32008D02*
X38110D01*
X32008Y127835D02*
Y138701D01*
Y127835D02*
X38110D01*
X110748Y19764D02*
X116850D01*
X110748D02*
Y30630D01*
X116850D01*
Y19764D02*
Y30630D01*
X104026Y19764D02*
X110128D01*
X104026D02*
Y30630D01*
X110128D01*
Y19764D02*
Y30630D01*
X83858Y19764D02*
X89961D01*
X83858D02*
Y30630D01*
X89961D01*
Y19764D02*
Y30630D01*
X90581Y19764D02*
X96683D01*
X90581D02*
Y30630D01*
X96683D01*
Y19764D02*
Y30630D01*
X97303Y19764D02*
X103405D01*
X97303D02*
Y30630D01*
X103405D01*
Y19764D02*
Y30630D01*
X26299Y98307D02*
X32402D01*
X26299D02*
Y109173D01*
X32402D01*
Y98307D02*
Y109173D01*
X46378Y49005D02*
Y55108D01*
X35512Y49005D02*
X46378D01*
X35512D02*
Y55108D01*
X46378D01*
X34724Y55108D02*
X46378D01*
Y60777D01*
X34724D02*
X46378D01*
X34724Y55108D02*
Y60777D01*
X33583Y98307D02*
X39685D01*
X33583D02*
Y109173D01*
X39685D01*
Y98307D02*
Y109173D01*
X46378Y42706D02*
Y48808D01*
X35512Y42706D02*
X46378D01*
X35512D02*
Y48808D01*
X46378D01*
X34724Y36997D02*
X46378D01*
Y42667D01*
X34724D02*
X46378D01*
X34724Y36997D02*
Y42667D01*
X59528Y32667D02*
X71181D01*
Y38336D01*
X59528D02*
X71181D01*
X59528Y32667D02*
Y38336D01*
Y26761D02*
X71181D01*
Y32430D01*
X59528D02*
X71181D01*
X59528Y26761D02*
Y32430D01*
Y20856D02*
X71181D01*
Y26525D01*
X59528D02*
X71181D01*
X59528Y20856D02*
Y26525D01*
D12*
X87992Y94882D02*
X89764D01*
X87992D02*
Y96653D01*
Y117913D02*
Y119685D01*
X89764D01*
X111024D02*
X112795D01*
Y117913D02*
Y119685D01*
X111024Y94882D02*
X112795D01*
Y96653D01*
X70374Y62667D02*
X72835D01*
Y60206D02*
Y62667D01*
Y45738D02*
Y48198D01*
X70374Y45738D02*
X72835D01*
X55905D02*
X58366D01*
X55905D02*
Y48198D01*
Y62667D02*
X58366D01*
X55905Y60206D02*
Y62667D01*
X20079Y33268D02*
X51575D01*
Y20276D02*
Y33268D01*
X20079Y20276D02*
X51575D01*
X20079D02*
Y33268D01*
X27953Y20276D02*
Y33268D01*
X49803Y84055D02*
Y117717D01*
X12342Y93378D02*
X22343D01*
Y88378D02*
Y93378D01*
Y59378D02*
Y64378D01*
X12342Y59378D02*
X22343D01*
X78150Y129528D02*
X87992Y119685D01*
X78150Y85039D02*
X87992Y94882D01*
X112795D02*
X122638Y85039D01*
X112795Y119685D02*
X122638Y129528D01*
D13*
X92717Y131891D02*
X93308Y131300D01*
X94488D01*
X95079Y131891D01*
Y134252D01*
X94488Y134843D01*
X93308D01*
X92717Y134252D01*
X89766Y134843D02*
Y131300D01*
X91537Y133071D01*
X89175D01*
X119290Y116536D02*
X119881Y117127D01*
Y118307D01*
X119290Y118898D01*
X116929D01*
X116339Y118307D01*
Y117127D01*
X116929Y116536D01*
X116339Y115356D02*
X119881D01*
Y113584D01*
X119290Y112994D01*
X118110D01*
X117519Y113584D01*
Y115356D01*
X119881Y111813D02*
X116929D01*
X116339Y111223D01*
Y110042D01*
X116929Y109452D01*
X119881D01*
X94487Y58268D02*
X95078Y58859D01*
Y60040D01*
X94487Y60630D01*
X92126D01*
X91535Y60040D01*
Y58859D01*
X92126Y58268D01*
X91535Y57088D02*
Y55907D01*
Y56497D01*
X95078D01*
X94487Y57088D01*
X91535Y54136D02*
Y52955D01*
Y53546D01*
X95078D01*
X94487Y54136D01*
X112205Y38976D02*
X115747D01*
Y37205D01*
X115156Y36615D01*
X113976D01*
X113385Y37205D01*
Y38976D01*
Y37796D02*
X112205Y36615D01*
X112795Y35434D02*
X112205Y34844D01*
Y33663D01*
X112795Y33073D01*
X115156D01*
X115747Y33663D01*
Y34844D01*
X115156Y35434D01*
X114566D01*
X113976Y34844D01*
Y33073D01*
X105512Y38976D02*
X109055D01*
Y37205D01*
X108464Y36615D01*
X107283D01*
X106693Y37205D01*
Y38976D01*
Y37796D02*
X105512Y36615D01*
X108464Y35434D02*
X109055Y34844D01*
Y33663D01*
X108464Y33073D01*
X107874D01*
X107283Y33663D01*
X106693Y33073D01*
X106103D01*
X105512Y33663D01*
Y34844D01*
X106103Y35434D01*
X106693D01*
X107283Y34844D01*
X107874Y35434D01*
X108464D01*
X107283Y34844D02*
Y33663D01*
X98563Y38976D02*
X102105D01*
Y37205D01*
X101515Y36615D01*
X100334D01*
X99744Y37205D01*
Y38976D01*
Y37796D02*
X98563Y36615D01*
X102105Y35434D02*
Y33073D01*
X101515D01*
X99153Y35434D01*
X98563D01*
X91939Y38976D02*
X95481D01*
Y37205D01*
X94891Y36615D01*
X93710D01*
X93120Y37205D01*
Y38976D01*
Y37796D02*
X91939Y36615D01*
X95481Y33073D02*
X94891Y34253D01*
X93710Y35434D01*
X92529D01*
X91939Y34844D01*
Y33663D01*
X92529Y33073D01*
X93120D01*
X93710Y33663D01*
Y35434D01*
X84921Y38976D02*
X88463D01*
Y37205D01*
X87873Y36615D01*
X86692D01*
X86102Y37205D01*
Y38976D01*
Y37796D02*
X84921Y36615D01*
X88463Y33073D02*
Y35434D01*
X86692D01*
X87283Y34253D01*
Y33663D01*
X86692Y33073D01*
X85512D01*
X84921Y33663D01*
Y34844D01*
X85512Y35434D01*
X40157Y138779D02*
X43700D01*
Y137008D01*
X43109Y136418D01*
X41929D01*
X41338Y137008D01*
Y138779D01*
Y137599D02*
X40157Y136418D01*
Y135237D02*
Y134057D01*
Y134647D01*
X43700D01*
X43109Y135237D01*
Y132286D02*
X43700Y131695D01*
Y130515D01*
X43109Y129924D01*
X40748D01*
X40157Y130515D01*
Y131695D01*
X40748Y132286D01*
X43109D01*
X28543Y124408D02*
X27952Y124999D01*
X26772D01*
X26181Y124408D01*
Y122047D01*
X26772Y121457D01*
X27952D01*
X28543Y122047D01*
X29723Y121457D02*
X30904D01*
X30314D01*
Y124999D01*
X29723Y124408D01*
X35037Y121457D02*
X32675D01*
X35037Y123818D01*
Y124408D01*
X34446Y124999D01*
X33265D01*
X32675Y124408D01*
X27756Y116732D02*
X31298D01*
Y114961D01*
X30708Y114371D01*
X29527D01*
X28937Y114961D01*
Y116732D01*
Y115552D02*
X27756Y114371D01*
Y111419D02*
X31298D01*
X29527Y113190D01*
Y110829D01*
X26575Y50394D02*
Y53936D01*
X28346D01*
X28936Y53346D01*
Y52165D01*
X28346Y51574D01*
X26575D01*
X27755D02*
X28936Y50394D01*
X30117D02*
X31298D01*
X30707D01*
Y53936D01*
X30117Y53346D01*
X35039Y116732D02*
X38581D01*
Y114961D01*
X37991Y114371D01*
X36810D01*
X36220Y114961D01*
Y116732D01*
Y115552D02*
X35039Y114371D01*
X37991Y113190D02*
X38581Y112600D01*
Y111419D01*
X37991Y110829D01*
X37401D01*
X36810Y111419D01*
Y112009D01*
Y111419D01*
X36220Y110829D01*
X35630D01*
X35039Y111419D01*
Y112600D01*
X35630Y113190D01*
X26575Y44094D02*
Y47637D01*
X28346D01*
X28936Y47046D01*
Y45866D01*
X28346Y45275D01*
X26575D01*
X27755D02*
X28936Y44094D01*
X32478D02*
X30117D01*
X32478Y46456D01*
Y47046D01*
X31888Y47637D01*
X30707D01*
X30117Y47046D01*
X23444Y12599D02*
Y14961D01*
X19902D01*
Y12599D01*
X21673Y14961D02*
Y13780D01*
X23444Y11418D02*
X19902Y9057D01*
X23444D02*
X19902Y11418D01*
X23444Y7876D02*
Y5515D01*
Y6696D01*
X19902D01*
Y4334D02*
Y3153D01*
Y3744D01*
X23444D01*
X22853Y4334D01*
X16142Y103740D02*
Y107282D01*
X17913D01*
X18503Y106692D01*
Y105511D01*
X17913Y104921D01*
X16142D01*
X17323D02*
X18503Y103740D01*
X19684Y107282D02*
X22045Y103740D01*
Y107282D02*
X19684Y103740D01*
X16043Y101180D02*
X18405D01*
X17224D01*
Y97638D01*
X19586Y101180D02*
X21947Y97638D01*
Y101180D02*
X19586Y97638D01*
X75590Y30579D02*
X74999Y31170D01*
X73819D01*
X73228Y30579D01*
Y28218D01*
X73819Y27627D01*
X74999D01*
X75590Y28218D01*
X76771D02*
X77361Y27627D01*
X78542D01*
X79132Y28218D01*
Y30579D01*
X78542Y31170D01*
X77361D01*
X76771Y30579D01*
Y29989D01*
X77361Y29398D01*
X79132D01*
X75590Y24674D02*
X74999Y25264D01*
X73819D01*
X73228Y24674D01*
Y22312D01*
X73819Y21722D01*
X74999D01*
X75590Y22312D01*
X76771Y21722D02*
X77951D01*
X77361D01*
Y25264D01*
X76771Y24674D01*
X79722D02*
X80313Y25264D01*
X81493D01*
X82084Y24674D01*
Y22312D01*
X81493Y21722D01*
X80313D01*
X79722Y22312D01*
Y24674D01*
X28936Y41141D02*
X28346Y41731D01*
X27165D01*
X26575Y41141D01*
Y38779D01*
X27165Y38189D01*
X28346D01*
X28936Y38779D01*
X30117Y41731D02*
X32478D01*
Y41141D01*
X30117Y38779D01*
Y38189D01*
X28936Y59251D02*
X28346Y59841D01*
X27165D01*
X26575Y59251D01*
Y56890D01*
X27165Y56299D01*
X28346D01*
X28936Y56890D01*
X32478Y59841D02*
X31298Y59251D01*
X30117Y58070D01*
Y56890D01*
X30707Y56299D01*
X31888D01*
X32478Y56890D01*
Y57480D01*
X31888Y58070D01*
X30117D01*
X75590Y36878D02*
X74999Y37469D01*
X73819D01*
X73228Y36878D01*
Y34517D01*
X73819Y33927D01*
X74999D01*
X75590Y34517D01*
X76771Y36878D02*
X77361Y37469D01*
X78542D01*
X79132Y36878D01*
Y36288D01*
X78542Y35698D01*
X79132Y35107D01*
Y34517D01*
X78542Y33927D01*
X77361D01*
X76771Y34517D01*
Y35107D01*
X77361Y35698D01*
X76771Y36288D01*
Y36878D01*
X77361Y35698D02*
X78542D01*
X143503Y134251D02*
X141142D01*
Y130709D01*
X143503D01*
X141142Y132480D02*
X142323D01*
X144684Y134251D02*
X147045Y130709D01*
Y134251D02*
X144684Y130709D01*
X148226Y134251D02*
X150587D01*
X149407D01*
Y130709D01*
X154130D02*
X151768D01*
X154130Y133070D01*
Y133660D01*
X153539Y134251D01*
X152359D01*
X151768Y133660D01*
X23444Y151772D02*
Y154134D01*
X19902D01*
Y151772D01*
X21673Y154134D02*
Y152953D01*
X23444Y150592D02*
X19902Y148230D01*
X23444D02*
X19902Y150592D01*
X23444Y147049D02*
Y144688D01*
Y145869D01*
X19902D01*
X22853Y143507D02*
X23444Y142917D01*
Y141736D01*
X22853Y141146D01*
X22263D01*
X21673Y141736D01*
Y142327D01*
Y141736D01*
X21082Y141146D01*
X20492D01*
X19902Y141736D01*
Y142917D01*
X20492Y143507D01*
X79920Y59843D02*
Y62205D01*
X78149D01*
Y61024D01*
Y62205D01*
X76378D01*
X79920Y58663D02*
Y56301D01*
Y57482D01*
X76378D01*
X79920Y55120D02*
X76378D01*
Y53349D01*
X76968Y52759D01*
X79330D01*
X79920Y53349D01*
Y55120D01*
Y51578D02*
Y50397D01*
Y50988D01*
X76378D01*
Y51578D01*
Y50397D01*
X2801Y52539D02*
Y49587D01*
X3391Y48997D01*
X4572D01*
X5162Y49587D01*
Y52539D01*
X6343Y48997D02*
Y52539D01*
X8114D01*
X8704Y51949D01*
Y50768D01*
X8114Y50178D01*
X6343D01*
X9885Y52539D02*
Y48997D01*
X11656D01*
X12247Y49587D01*
Y51949D01*
X11656Y52539D01*
X9885D01*
X13427D02*
X14608D01*
X14018D01*
Y48997D01*
X13427D01*
X14608D01*
X134252Y51278D02*
Y47736D01*
X136023D01*
X136613Y48327D01*
Y50688D01*
X136023Y51278D01*
X134252D01*
X137794Y50688D02*
X138384Y51278D01*
X139565D01*
X140156Y50688D01*
Y50098D01*
X139565Y49507D01*
X138975D01*
X139565D01*
X140156Y48917D01*
Y48327D01*
X139565Y47736D01*
X138384D01*
X137794Y48327D01*
X134252Y41091D02*
Y37549D01*
X136023D01*
X136613Y38140D01*
Y40501D01*
X136023Y41091D01*
X134252D01*
X139565Y37549D02*
Y41091D01*
X137794Y39320D01*
X140156D01*
X134252Y61465D02*
Y57923D01*
X136023D01*
X136613Y58514D01*
Y60875D01*
X136023Y61465D01*
X134252D01*
X140156Y57923D02*
X137794D01*
X140156Y60285D01*
Y60875D01*
X139565Y61465D01*
X138384D01*
X137794Y60875D01*
X134252Y71652D02*
Y68110D01*
X136023D01*
X136613Y68701D01*
Y71062D01*
X136023Y71652D01*
X134252D01*
X137794Y68110D02*
X138975D01*
X138384D01*
Y71652D01*
X137794Y71062D01*
X134252Y30904D02*
Y27362D01*
X136023D01*
X136613Y27953D01*
Y30314D01*
X136023Y30904D01*
X134252D01*
X140156D02*
X137794D01*
Y29133D01*
X138975Y29724D01*
X139565D01*
X140156Y29133D01*
Y27953D01*
X139565Y27362D01*
X138384D01*
X137794Y27953D01*
M02*
