M48
;Layer_Color=9474304
;FILE_FORMAT=2:5
INCH,LZ
;TYPE=PLATED
T1F00S00C0.01181
T2F00S00C0.02362
T3F00S00C0.03937
T4F00S00C0.07874
;TYPE=NON_PLATED
T5F00S00C0.03346
T6F00S00C0.04331
%
T01
X0021063Y0007677
X0024213
Y0010827
X0021063
X0017323Y0016142
X0024016Y0055905
X0027165
Y0059055
Y0062008
X0024016
Y0059055
Y0065158
X0027165
Y0068307
X0024016
X0025197Y0072638
X0030709Y0063779
X0035827Y006437
X0048819Y0065748
X0052362Y0049213
X0053543Y0038583
Y0035433
X0056693
Y0038583
Y0032283
Y0029134
X0053543
Y0032283
Y0025984
X0056693
Y0022835
X0053543
X0050197Y0035433
Y0038583
X0062205Y0052037
X0066535
Y0056367
X0062205
X007185Y0061024
X0076968Y0049213
X008189Y0047244
X0082874Y0052165
X0087008Y0065748
X0097441Y0062992
X0097835Y0055118
X0108071Y0058268
X0108071Y0061417
X0108153Y0064453
X0108268Y006752
X0110827Y0040354
X0113976Y0040551
X0102461Y0039272
X0093307Y0039764
X0090748Y001752
X0086024
X0096063
X01
X0107087
X0118898Y0022047
X0072638Y0023622
Y0029724
Y0035433
X0131675Y0076754
X0131693Y0079921
X0131693Y0085827
Y0088976
X0131693Y0092126
X013248Y0095866
X0122047Y0097047
X012185Y0100197
X010689Y0100787
X0102559
X0098228
X0093898
Y0105118
Y0109449
Y0113779
X0098228
Y0109449
Y0105118
X0102559
Y0109449
Y0113779
X010689
Y0109449
Y0105118
X0082087Y0106693
X007126Y0100787
X0106102Y013248
X0024016Y0137598
X0010827Y0137008
X001063Y0114173
X0025197Y0084055
T02
X0006417Y0023858
X0011417
Y0028858
X0006417
Y0033858
X0011417
Y0038858
X0006417
Y0043858
X0011417
T03
X0032461Y0009449
X0042461
X0052461
X0062461
X0072461
X0082461
X0092461
X0102461
X0112461
X0122461
X0147638Y0032835
Y0042835
Y0052835
Y0062835
Y0072835
Y0082835
Y0092835
Y0102835
Y0112835
Y0122835
X0125787Y013248
X0122461Y0148031
X0112461
X0102461
X0092461
X0082461
X0072461
X0062461
X0052461
X0075394Y013248
Y0082087
X0125591
X0042461Y0148031
X0032461
T04
X0009843Y0009843
X0147638
Y0147638
X0009843
T05
X0018504Y0066604
Y0086289
T06
X0007874Y0062667
Y0090226
M30
